<?xml version="1.0" encoding="UTF-8" standalone="no"?>
<svg
   xmlns:dc="http://purl.org/dc/elements/1.1/"
   xmlns:cc="http://creativecommons.org/ns#"
   xmlns:rdf="http://www.w3.org/1999/02/22-rdf-syntax-ns#"
   xmlns:svg="http://www.w3.org/2000/svg"
   xmlns="http://www.w3.org/2000/svg"
   xmlns:sodipodi="http://sodipodi.sourceforge.net/DTD/sodipodi-0.dtd"
   xmlns:inkscape="http://www.inkscape.org/namespaces/inkscape"
   version="1.1"
   id="svg2"
   xml:space="preserve"
   width="2400"
   height="1496"
   viewBox="0 0 2400 1496"
   sodipodi:docname="18130.eps"><metadata
     id="metadata8"><rdf:RDF><cc:Work
         rdf:about=""><dc:format>image/svg+xml</dc:format><dc:type
           rdf:resource="http://purl.org/dc/dcmitype/StillImage" /></cc:Work></rdf:RDF></metadata><defs
     id="defs6"><clipPath
       clipPathUnits="userSpaceOnUse"
       id="clipPath428"><path
         d="m 14647.5,4172.43 h 127.301 v 254.559 H 14647.5 Z"
         id="path426" /></clipPath><clipPath
       clipPathUnits="userSpaceOnUse"
       id="clipPath440"><path
         d="m 6474.43,3116.6 h 127.301 v 254.57 H 6474.43 Z"
         id="path438" /></clipPath><clipPath
       clipPathUnits="userSpaceOnUse"
       id="clipPath452"><path
         d="m 1257.78,4348.5 h 127.297 v 254.57 H 1257.78 Z"
         id="path450" /></clipPath><clipPath
       clipPathUnits="userSpaceOnUse"
       id="clipPath464"><path
         d="m 2449.24,9912.34 h 127.301 v 254.563 H 2449.24 Z"
         id="path462" /></clipPath><clipPath
       clipPathUnits="userSpaceOnUse"
       id="clipPath476"><path
         d="m 16715.3,2630.59 h 329 v 657.82 h -329 z"
         id="path474" /></clipPath><clipPath
       clipPathUnits="userSpaceOnUse"
       id="clipPath488"><path
         d="m 10670.5,7990.91 h 396.398 v 792.641 H 10670.5 Z"
         id="path486" /></clipPath><clipPath
       clipPathUnits="userSpaceOnUse"
       id="clipPath502"><path
         d="m 2651.54,735.402 h 256.152 v 512.25 H 2651.54 Z"
         id="path500" /></clipPath></defs><sodipodi:namedview
     pagecolor="#ffffff"
     bordercolor="#666666"
     borderopacity="1"
     objecttolerance="10"
     gridtolerance="10"
     guidetolerance="10"
     inkscape:pageopacity="0"
     inkscape:pageshadow="2"
     inkscape:window-width="640"
     inkscape:window-height="480"
     id="namedview4" /><g
     id="g10"
     inkscape:groupmode="layer"
     inkscape:label="ink_ext_XXXXXX"
     transform="matrix(1.3333333,0,0,-1.3333333,0,1496)"><g
       id="g12"
       transform="scale(0.1)"><path
         d="M 0,0 H 18000 V 11220 H 0 Z"
         style="fill:#ffffff;fill-opacity:1;fill-rule:nonzero;stroke:none"
         id="path14" /><path
         d="m 5402.29,5613.16 h 1110.19 v 622.35 H 5402.29 Z m 1175.29,-65.09 H 5337.19 v 752.54 h 1240.39 v -752.54"
         style="fill:#e5e6e7;fill-opacity:1;fill-rule:nonzero;stroke:none"
         id="path16" /><path
         d="m 4286.99,4238.12 c -330.23,0 -598.88,-268.65 -598.88,-598.88 0,-330.23 268.65,-598.89 598.88,-598.89 330.23,0 598.89,268.66 598.89,598.89 0,330.23 -268.66,598.88 -598.89,598.88 z m 0,-1262.87 c -366.12,0 -663.98,297.87 -663.98,663.99 0,366.12 297.86,663.98 663.98,663.98 366.13,0 663.99,-297.86 663.99,-663.98 0,-366.12 -297.86,-663.99 -663.99,-663.99"
         style="fill:#dcdcdb;fill-opacity:1;fill-rule:nonzero;stroke:none"
         id="path18" /><path
         d="m 2720.21,2963.23 c -203.27,0 -368.64,-165.37 -368.64,-368.65 0,-203.27 165.37,-368.64 368.64,-368.64 203.28,0 368.65,165.37 368.65,368.64 0,203.28 -165.37,368.65 -368.65,368.65 z m 0,-802.39 c -239.17,0 -433.74,194.58 -433.74,433.74 0,239.17 194.57,433.75 433.74,433.75 239.17,0 433.75,-194.58 433.75,-433.75 0,-239.16 -194.58,-433.74 -433.75,-433.74"
         style="fill:#dcdcdb;fill-opacity:1;fill-rule:nonzero;stroke:none"
         id="path20" /><path
         d="m 16542.2,6962.33 c -238.4,0 -462.6,-92.85 -631.2,-261.46 -168.6,-168.61 -261.5,-392.78 -261.5,-631.23 0,-238.45 92.9,-462.63 261.5,-631.24 168.6,-168.61 392.8,-261.47 631.2,-261.47 238.5,0 462.6,92.86 631.2,261.47 168.7,168.61 261.5,392.79 261.5,631.24 0,238.45 -92.8,462.62 -261.5,631.23 -168.6,168.61 -392.7,261.46 -631.2,261.46 z m 0,-1850.49 c -255.8,0 -496.4,99.63 -677.3,280.53 -180.9,180.91 -280.5,421.43 -280.5,677.27 0,255.83 99.6,496.36 280.5,677.26 180.9,180.9 421.5,280.53 677.3,280.53 255.8,0 496.4,-99.63 677.3,-280.53 180.9,-180.9 280.5,-421.43 280.5,-677.26 0,-255.84 -99.6,-496.36 -280.5,-677.27 -180.9,-180.9 -421.5,-280.53 -677.3,-280.53"
         style="fill:#dcdcdb;fill-opacity:1;fill-rule:nonzero;stroke:none"
         id="path22" /><path
         d="m 9128.4,1898.95 c -350.35,0 -635.38,-285.03 -635.38,-635.38 0,-350.371 285.03,-635.371 635.38,-635.371 350.34,0 635.37,285 635.37,635.371 0,350.35 -285.03,635.38 -635.37,635.38 z m 0,-1335.848 c -386.25,0 -700.48,314.199 -700.48,700.468 0,386.24 314.23,700.48 700.48,700.48 386.24,0 700.47,-314.24 700.47,-700.48 0,-386.269 -314.23,-700.468 -700.47,-700.468"
         style="fill:#dcdcdb;fill-opacity:1;fill-rule:nonzero;stroke:none"
         id="path24" /><path
         d="m 8506.95,1274.42 c -155.98,0 -282.89,-126.92 -282.89,-282.92 0,-155.898 126.91,-282.801 282.89,-282.801 155.98,0 282.88,126.903 282.88,282.801 0,156 -126.9,282.92 -282.88,282.92 z m 0,-630.818 c -191.88,0 -347.99,156.097 -347.99,347.898 0,191.9 156.11,348.02 347.99,348.02 191.88,0 347.98,-156.12 347.98,-348.02 0,-191.801 -156.1,-347.898 -347.98,-347.898"
         style="fill:#dcdcdb;fill-opacity:1;fill-rule:nonzero;stroke:none"
         id="path26" /><path
         d="m 13789,1442.31 h 1110.2 V 3438.28 H 13789 Z m 1175.3,-65.09 h -1240.4 v 2126.15 h 1240.4 V 1377.22"
         style="fill:#dcdcdb;fill-opacity:1;fill-rule:nonzero;stroke:none"
         id="path28" /><path
         d="m 4792.99,3055.53 -18.09,31.32 60.75,35.07 27.12,-15.66 v -2.19 h -16.81 l 7.77,-13.47 z m -93.96,-54.25 -18.08,31.32 62.63,36.16 18.09,-31.31 z m 163.74,-5.7 h -36.16 v 72.33 h 36.16 z m -257.7,-48.55 -18.08,31.32 62.64,36.17 18.08,-31.32 z m -93.96,-54.24 -18.08,31.32 62.63,36.16 18.09,-31.32 z m 351.66,-5.71 h -36.16 v 72.33 h 36.16 z m -445.61,-48.54 -18.09,31.32 62.64,36.17 18.08,-31.33 z m -93.97,-54.25 -18.08,31.32 62.64,36.17 18.08,-31.33 z m 539.58,-5.7 h -36.16 v 72.33 h 36.16 z m -633.53,-48.55 -18.09,31.32 62.64,36.16 18.09,-31.31 z m -93.97,-54.24 -18.07,31.31 62.63,36.17 18.08,-31.32 z m 727.5,-5.71 h -36.16 v 72.33 h 36.16 z m -821.45,-48.54 -18.09,31.32 62.64,36.16 18.09,-31.32 z m -93.97,-54.25 -18.07,31.32 62.63,36.17 18.09,-31.32 z m 915.42,-5.7 h -36.16 v 72.33 h 36.16 z m -1009.37,-48.55 -18.09,31.32 62.65,36.17 18.08,-31.32 z m -93.96,-54.25 -18.08,31.32 62.63,36.17 18.09,-31.32 z m 1103.33,-5.69 h -36.16 v 72.32 h 36.16 z m -1197.29,-48.55 -18.08,31.31 62.64,36.17 18.08,-31.32 z m -93.96,-54.25 -18.08,31.32 62.63,36.16 18.09,-31.32 z m 1291.25,-5.7 h -36.16 v 72.33 h 36.16 z m -1385.21,-48.55 -18.08,31.32 62.64,36.16 18.09,-31.31 z m -93.96,-54.25 -18.08,31.32 62.63,36.17 18.09,-31.32 z m 1479.17,-5.7 h -36.16 v 72.33 h 36.16 z m -1573.12,-48.54 -18.09,31.32 62.64,36.16 18.09,-31.32 z m -93.97,-54.25 -18.08,31.32 62.64,36.16 18.08,-31.32 z m 1667.09,-5.7 h -36.16 v 72.33 h 36.16 z m -1761.04,-48.55 -18.09,31.32 62.64,36.16 18.09,-31.32 z m -93.97,-54.25 -18.07,31.32 62.63,36.16 18.09,-31.31 z m 1855.01,-5.69 h -36.16 v 72.33 h 36.16 z m 0,-108.5 h -36.16 v 72.33 h 36.16 z m 0,-108.5 h -36.16 v 72.33 h 36.16 z m 0,-108.49 h -36.16 v 72.33 h 36.16 z m 0,-108.49 h -36.16 v 72.33 h 36.16 z m 0,-108.5 h -36.16 v 72.33 h 36.16 z m 0,-108.5 h -36.16 v 72.33 h 36.16 z m 0,-108.49 h -36.16 v 72.33 h 36.16 z m 0,-108.46 h -36.16 v 72.3 h 36.16 z m 0,-108.5 h -36.16 v 72.3 h 36.16 z m 0,-68.001 h -36.16 v 31.801 h 36.16 v -31.801"
         style="fill:#595a5c;fill-opacity:1;fill-rule:nonzero;stroke:none"
         id="path30" /><path
         d="m 2978.02,4171.36 -30.61,19.26 345.89,549.63 30.61,-19.26 -345.89,-549.63"
         style="fill:#595a5c;fill-opacity:1;fill-rule:nonzero;stroke:none"
         id="path32" /><path
         d="m 3863.01,5582.31 -25.02,26.11 212.37,203.54 25.02,-26.11 -212.37,-203.54"
         style="fill:#595a5c;fill-opacity:1;fill-rule:nonzero;stroke:none"
         id="path34" /><path
         d="m 3660,6172.84 -32.54,15.8 31.6,65.06 32.53,-15.79 z m -47.39,-97.6 -32.53,15.8 31.59,65.06 32.53,-15.79 z m -47.4,-97.59 -32.52,15.79 31.59,65.07 32.53,-15.8 z m -47.39,-97.6 -32.53,15.79 31.59,65.07 32.54,-15.8 z m -47.38,-97.6 -32.54,15.8 31.59,65.06 32.54,-15.79 z m -19.3,-39.72 -32.53,15.8 3.49,7.18 32.54,-15.79 -3.5,-7.19"
         style="fill:#595a5c;fill-opacity:1;fill-rule:nonzero;stroke:none"
         id="path36" /><path
         d="m 2953.64,5673.41 -471.78,479.11 25.76,25.38 471.79,-479.11 -25.77,-25.38"
         style="fill:#595a5c;fill-opacity:1;fill-rule:nonzero;stroke:none"
         id="path38" /><path
         d="m 2007.71,5041.07 -0.12,36.17 871.18,2.86 0.12,-36.17 -871.18,-2.86"
         style="fill:#595a5c;fill-opacity:1;fill-rule:nonzero;stroke:none"
         id="path40" /><path
         d="m 4643.35,5107.13 -661.16,52.82 2.88,36.05 661.16,-52.82 -2.88,-36.05"
         style="fill:#595a5c;fill-opacity:1;fill-rule:nonzero;stroke:none"
         id="path42" /><path
         d="m 3606.82,8035.59 -30.4,19.6 39.2,60.78 30.4,-19.6 z m -58.81,-91.19 -30.39,19.61 39.2,60.78 30.4,-19.59 z m -872,-66.04 -58.34,42.76 21.37,29.17 58.34,-42.76 z m 813.2,-25.13 -30.39,19.6 39.2,60.78 30.39,-19.6 z m -892.69,-7.82 -33.04,14.68 29.36,66.1 33.05,-14.68 z m 167.01,-31.18 -58.35,42.76 21.37,29.17 58.35,-42.76 z m 666.88,-52.18 -30.39,19.6 39.2,60.79 30.39,-19.6 z m -579.37,-11.95 -58.34,42.76 21.37,29.17 58.34,-42.76 z m -298.56,-3.85 -33.06,14.68 29.37,66.11 33.06,-14.69 z m 386.06,-60.28 -58.33,42.76 21.37,29.17 58.34,-42.75 z m 433.07,-15.1 -30.39,19.6 39.2,60.78 30.39,-19.59 z m -863.17,-23.77 -33.06,14.68 29.37,66.1 33.04,-14.68 z m 517.61,-25.25 -58.34,42.74 21.38,29.18 58.35,-42.75 z m 286.76,-42.16 -30.4,19.6 39.21,60.79 30.39,-19.6 z m -199.24,-21.98 -58.35,42.76 21.39,29.17 58.34,-42.76 z m -649.19,-9.76 -33.04,14.68 29.36,66.1 33.05,-14.68 z m 736.7,-54.37 -58.34,42.76 21.38,29.17 58.34,-42.76 z m 52.93,-5.07 -30.4,19.6 39.21,60.79 30.39,-19.6 z m -833.67,-39.72 -33.05,14.69 29.37,66.1 33.05,-14.68 z m -44.04,-99.15 -33.05,14.69 29.37,66.09 33.04,-14.67 z m -44.04,-99.15 -33.06,14.68 29.36,66.1 33.06,-14.68 z m -44.05,-99.15 -33.05,14.68 29.36,66.1 33.05,-14.68 z m -44.04,-99.15 -33.06,14.68 29.37,66.1 33.05,-14.68 z m -948.96,-97.9 -33.04,14.69 19.71,44.37 21.48,10.05 22.87,-6.52 -9.91,-34.78 -7.77,2.22 z m 904.91,-1.26 -33.05,14.68 29.37,66.11 33.04,-14.68 z m -779.47,-0.66 -69.56,19.82 9.92,34.78 69.56,-19.82 z m 104.35,-29.73 -69.56,19.82 9.9,34.78 69.56,-19.82 z m 104.34,-29.73 -69.56,19.81 9.91,34.78 69.56,-19.81 z m 104.34,-29.74 -69.56,19.82 9.91,34.78 69.56,-19.82 z m -482.52,-8.02 -33.04,14.68 29.36,66.1 33.06,-14.68 z m 904.91,-1.27 -33.04,14.68 29.36,66.1 33.05,-14.67 z m -318.05,-20.44 -69.56,19.82 9.91,34.78 69.56,-19.82 z m 104.34,-29.73 -69.56,19.82 9.91,34.78 69.57,-19.82 z m 104.34,-29.74 -69.56,19.82 9.91,34.78 69.56,-19.82 z m 50.48,-14.38 -15.7,4.47 5.59,19.61 -1.46,0.65 4.6,10.38 1.19,4.14 0.58,-0.16 16.36,36.83 33.06,-14.68 -22.75,-51.19 z m -890.07,-3.59 -33.05,14.68 29.37,66.1 33.04,-14.69 z m -44.05,-99.15 -33.05,14.68 29.37,66.1 33.04,-14.68 z m -44.06,-99.15 -33.04,14.68 29.36,66.1 33.05,-14.68 z m -44.05,-99.15 -33.05,14.69 29.37,66.1 33.05,-14.69 z m -44.05,-99.15 -33.048,14.69 29.368,66.1 33.05,-14.69 z m -44.052,-99.15 -33.047,14.69 29.363,66.1 33.046,-14.69 z m -44.055,-99.15 -33.047,14.69 29.363,66.1 33.047,-14.69 z m -44.055,-99.15 -33.047,14.69 29.368,66.1 33.046,-14.68 z m -44.05,-99.14 -33.047,14.68 29.367,66.1 33.047,-14.68 -29.367,-66.1"
         style="fill:#595a5c;fill-opacity:1;fill-rule:nonzero;stroke:none"
         id="path44" /><path
         d="m 8925.61,2607.66 c -405.58,0 -799.04,79.44 -1169.46,236.11 -357.76,151.33 -679.06,367.95 -954.97,643.86 -275.91,275.91 -492.53,597.2 -643.85,954.97 -156.68,370.42 -236.11,763.88 -236.11,1169.45 0,405.58 79.43,799.04 236.11,1169.46 151.32,357.76 367.94,679.06 643.85,954.97 l 51.14,-51.14 c -269.28,-269.29 -480.7,-582.86 -628.37,-932.01 -152.89,-361.46 -230.41,-745.43 -230.41,-1141.28 0,-395.84 77.52,-779.82 230.41,-1141.28 147.67,-349.14 359.09,-662.71 628.37,-932 269.29,-269.29 582.87,-480.7 932.01,-628.38 361.45,-152.88 745.44,-230.4 1141.28,-230.4 395.84,0 779.82,77.52 1141.29,230.4 349.1,147.68 662.7,359.09 932,628.38 269.3,269.29 480.7,582.86 628.4,932 152.9,361.46 230.4,745.44 230.4,1141.28 0,395.85 -77.5,779.82 -230.4,1141.28 -147.7,349.15 -359.1,662.72 -628.4,932.01 -269.3,269.28 -582.9,480.7 -932,628.38 -361.47,152.88 -745.45,230.4 -1141.29,230.4 -393.15,0 -774.77,-76.54 -1134.27,-227.48 l -28,66.69 c 368.41,154.68 759.45,233.12 1162.27,233.12 405.57,0 799.04,-79.44 1169.49,-236.12 357.7,-151.32 679,-367.94 954.9,-643.85 275.9,-275.91 492.6,-597.21 643.9,-954.97 156.7,-370.42 236.1,-763.88 236.1,-1169.46 0,-405.57 -79.4,-799.03 -236.1,-1169.45 -151.3,-357.77 -368,-679.06 -643.9,-954.97 -275.9,-275.91 -597.2,-492.53 -954.9,-643.86 -370.45,-156.67 -763.92,-236.11 -1169.49,-236.11"
         style="fill:#e5e6e7;fill-opacity:1;fill-rule:nonzero;stroke:none"
         id="path46" /><path
         d="m 8925.14,2433.11 c -135.18,0 -270.56,8.73 -405.8,26.21 -407.5,52.7 -796.38,182.28 -1155.81,385.15 -359.44,202.88 -671.34,468.83 -927.05,790.46 -264.75,333.01 -457.34,711.42 -572.41,1124.71 -115.07,413.29 -145.75,836.77 -91.19,1258.69 52.7,407.5 182.28,796.37 385.15,1155.81 202.88,359.43 468.83,671.33 790.46,927.04 333.01,264.75 711.41,457.34 1124.7,572.41 252.4,70.27 512.1,109.33 771.89,116.11 l 1.88,-72.3 C 8593.1,8710.78 8339.29,8672.59 8092.6,8603.91 7688.68,8491.45 7318.9,8303.26 6993.51,8044.56 6679.19,7794.68 6419.3,7489.87 6221.02,7138.58 6022.74,6787.3 5896.1,6407.27 5844.61,6009.05 c -53.31,-412.26 -23.32,-826.1 89.14,-1230.01 112.46,-403.91 300.65,-773.7 559.35,-1099.1 249.88,-314.31 554.69,-574.21 905.97,-772.48 351.29,-198.27 731.32,-324.91 1129.54,-376.41 132.1,-17.08 264.44,-25.61 396.49,-25.61 280.04,-0.01 559.04,38.33 833.52,114.76 429.48,119.59 819.28,324.07 1158.48,607.78 162.8,136.12 312.2,289.82 444.1,456.81 130.8,165.64 245.3,345.35 340.1,534.14 l 64.6,-32.46 c -97,-193.16 -214.1,-377.04 -348,-546.51 -134.9,-170.88 -287.8,-328.16 -454.4,-467.46 -347.2,-290.36 -746,-499.62 -1185.47,-621.98 -280.81,-78.18 -566.36,-117.41 -852.89,-117.41"
         style="fill:#e5e6e7;fill-opacity:1;fill-rule:nonzero;stroke:none"
         id="path48" /><path
         d="m 8914.81,2251.08 c -67.1,0 -134.28,1.98 -201.62,5.96 -390.61,23.1 -770.75,112.45 -1129.83,265.58 -367.3,156.64 -700.48,375.05 -990.26,649.16 l 49.71,52.55 c 283.53,-268.21 609.52,-481.91 968.92,-635.17 351.41,-149.86 723.44,-237.31 1105.73,-259.92 384.87,-22.76 766.55,21.07 1134.44,130.26 380.8,113.01 735.8,293.1 1055.3,535.28 355.5,269.49 647.5,600.54 868,983.93 213,370.33 350.7,773.68 409.2,1198.85 58.5,425.17 34.9,850.71 -70.2,1264.8 -108.8,428.7 -300.6,826.32 -570.1,1181.8 -271.3,357.94 -605,651.48 -991.7,872.49 -373.5,213.45 -780.07,350.4 -1208.5,407.05 l 9.47,71.7 c 437.79,-57.87 853.33,-197.82 1234.93,-415.96 395.2,-225.86 736.2,-525.83 1013.4,-891.58 275.4,-363.24 471.4,-769.57 582.6,-1207.7 107.4,-423.17 131.5,-858.02 71.8,-1292.46 -59.8,-434.45 -200.5,-846.62 -418.2,-1225.06 -225.3,-391.83 -523.8,-730.13 -887,-1005.5 -326.4,-247.45 -689.3,-431.48 -1078.42,-546.98 -311.6,-92.48 -632.91,-139.08 -957.67,-139.08"
         style="fill:#e5e6e7;fill-opacity:1;fill-rule:nonzero;stroke:none"
         id="path50" /><path
         d="m 4319.54,9605.67 h 1110.2 V 10228 h -1110.2 z m 1175.29,-65.1 H 4254.44 v 752.53 h 1240.39 v -752.53"
         style="fill:#dcdcdb;fill-opacity:1;fill-rule:nonzero;stroke:none"
         id="path52" /><path
         d="m 2448.8,7038.13 c 0,-499.78 -405.15,-904.93 -904.92,-904.93 -499.78,0 -904.935,405.15 -904.935,904.93 0,499.78 405.155,904.93 904.935,904.93 499.77,0 904.92,-405.15 904.92,-904.93"
         style="fill:#e5e6e7;fill-opacity:1;fill-rule:nonzero;stroke:none"
         id="path54" /><path
         d="m 977.344,8205.6 c 0,-131.82 -106.856,-238.67 -238.672,-238.67 -131.817,0 -238.672,106.85 -238.672,238.67 0,131.81 106.855,238.67 238.672,238.67 131.816,0 238.672,-106.86 238.672,-238.67"
         style="fill:#e5e6e7;fill-opacity:1;fill-rule:nonzero;stroke:none"
         id="path56" /><path
         d="M 14261,945.699 H 13085.7 V 1687.09 H 14261 V 945.699"
         style="fill:#dcdcdb;fill-opacity:1;fill-rule:nonzero;stroke:none"
         id="path58" /><path
         d="m 13249.2,9099.16 h -2868.5 v 1430.74 h 2868.5 V 9099.16"
         style="fill:#e5e6e7;fill-opacity:1;fill-rule:nonzero;stroke:none"
         id="path60" /><path
         d="M 17044.2,9545.18 H 15610 v 715.42 h 1434.2 v -715.42"
         style="fill:#dcdcdb;fill-opacity:1;fill-rule:nonzero;stroke:none"
         id="path62" /><path
         d="m 8674.62,3615.54 -113.17,-660.27 c 395.13,-68.01 786.5,-45.86 1152.12,52.19 l -173.01,647.3 c -274.81,-73.7 -568.96,-90.34 -865.94,-39.22"
         style="fill:#a6a7aa;fill-opacity:1;fill-rule:nonzero;stroke:none"
         id="path64" /><path
         d="m 7034.69,6036.01 c 115.81,543.17 439.23,988.71 869.42,1271.32 L 7536.29,7867.2 C 6963.92,7491.18 6533.61,6898.39 6379.52,6175.71 c -9.66,-45.32 -18.12,-90.61 -25.4,-135.85 l 661.47,-105.95 c 5.47,34 11.83,68.04 19.1,102.1"
         style="fill:#dcdcdb;fill-opacity:1;fill-rule:nonzero;stroke:none"
         id="path66" /><path
         d="M 7804.16,3988.79 7403.3,3451.88 c 77.81,-58.17 159.1,-112.36 243.64,-162.19 l 341.5,576.52 c -63.96,37.64 -125.44,78.59 -184.28,122.58"
         style="fill:#dcdcdb;fill-opacity:1;fill-rule:nonzero;stroke:none"
         id="path68" /><path
         d="m 7115.49,4910.9 -628.46,-232.15 c 135.02,-364.44 347.48,-696.27 621.73,-971.38 l 474.01,473.46 c -206.12,206.75 -365.8,456.16 -467.28,730.07"
         style="fill:#dcdcdb;fill-opacity:1;fill-rule:nonzero;stroke:none"
         id="path70" /><path
         d="m 8062.03,3824.93 -316.99,-590.31 c 103.55,-55.32 211.57,-104.25 323.65,-146.19 l 236.16,626.97 c -84.07,31.43 -165.11,68.09 -242.82,109.53"
         style="fill:#dcdcdb;fill-opacity:1;fill-rule:nonzero;stroke:none"
         id="path72" /><path
         d="m 8174.81,3051.24 c 46.91,-15.37 94.45,-29.55 142.64,-42.45 l 173.77,646.98 c -36.06,9.65 -71.65,20.26 -106.77,31.75 l -209.64,-636.28"
         style="fill:#dcdcdb;fill-opacity:1;fill-rule:nonzero;stroke:none"
         id="path74" /><path
         d="m 9719.46,3711.78 232.15,-628.45 c 796.19,294.96 1436.79,959.55 1669.99,1830.42 l -647,173.77 C 10799.4,4432.98 10317.9,3933.48 9719.46,3711.78"
         style="fill:#a6a7aa;fill-opacity:1;fill-rule:nonzero;stroke:none"
         id="path76" /><path
         d="m 8900.19,7637.37 -38.63,668.93 c -119.89,-6.86 -238.32,-21.7 -354.61,-44.14 l 126.7,-657.97 c 87.41,16.86 176.42,28.02 266.54,33.18"
         style="fill:#dcdcdb;fill-opacity:1;fill-rule:nonzero;stroke:none"
         id="path78" /><path
         d="m 7003.85,5849.67 -665.35,78.12 c -33.29,-280.74 -21.69,-558.24 29.71,-824.54 l 657.97,126.71 c -38.64,200.14 -47.35,408.72 -22.33,619.71"
         style="fill:#dcdcdb;fill-opacity:1;fill-rule:nonzero;stroke:none"
         id="path80" /><path
         d="m 9439.72,7595.69 c 594.78,-126.83 1072.58,-502.6 1347.48,-994.94 l 587.2,322.33 c -365.4,657.02 -1002,1158.68 -1795,1327.77 -203.03,43.3 -405.6,62.47 -604.73,59.52 l 10.52,-669.95 c 149.67,2.22 301.92,-12.19 454.53,-44.73"
         style="fill:#dcdcdb;fill-opacity:1;fill-rule:nonzero;stroke:none"
         id="path82" /><path
         d="m 8215.11,7475.03 -265.04,615.28 C 7840.48,8043 7734.26,7988.54 7632.11,7927.37 l 344.02,-574.81 c 76.77,45.98 156.6,86.91 238.98,122.47"
         style="fill:#dcdcdb;fill-opacity:1;fill-rule:nonzero;stroke:none"
         id="path84" /><path
         d="m 7044.09,5146.8 -652.05,-154.19 c 6.03,-25.39 12.38,-50.66 19.12,-75.81 l 647.31,173.02 c -5.07,18.9 -9.85,37.9 -14.38,56.98"
         style="fill:#dcdcdb;fill-opacity:1;fill-rule:nonzero;stroke:none"
         id="path86" /><path
         d="m 8054.88,8132.95 239.01,-625.87 c 83.37,31.92 169.08,58.44 256.61,79.2 l -154.19,652.05 c -116.45,-27.62 -230.49,-62.9 -341.43,-105.38"
         style="fill:#dcdcdb;fill-opacity:1;fill-rule:nonzero;stroke:none"
         id="path88" /><path
         d="m 11714,5662.52 -669.9,-14.25 c 2,-124.41 -7.4,-250.62 -29.3,-377.36 l 660.3,-113.16 c 29.2,169.53 41.8,338.36 38.9,504.77"
         style="fill:#dcdcdb;fill-opacity:1;fill-rule:nonzero;stroke:none"
         id="path90" /><path
         d="m 11032.6,5832.54 665.7,76.17 c -30.3,275.41 -102.9,541.48 -212.3,789.94 l -614.6,-266.63 c 83.4,-188.42 138.5,-390.39 161.2,-599.48"
         style="fill:#dcdcdb;fill-opacity:1;fill-rule:nonzero;stroke:none"
         id="path92" /><path
         d="m 13903.9,4656.37 -151.2,-58.47 79.2,-66.26 -546.4,-653.06 -402.8,337.03 -704.4,-841.81 82.3,-68.87 635.5,759.5 392.7,-328.6 10.1,-8.42 615.3,735.36 79.3,-66.37 30.9,159.21 30.8,159.22 -151.3,-58.46"
         style="fill:#4674b7;fill-opacity:1;fill-rule:nonzero;stroke:none"
         id="path94" /><path
         d="m 12591.3,2014.22 h -319.5 v 959.39 h 319.5 v -959.39"
         style="fill:#a6a7aa;fill-opacity:1;fill-rule:nonzero;stroke:none"
         id="path96" /><path
         d="m 13037.3,2003.69 h -319.5 v 1515.95 h 319.5 V 2003.69"
         style="fill:#a6a7aa;fill-opacity:1;fill-rule:nonzero;stroke:none"
         id="path98" /><path
         d="m 13484,2003.69 h -319.5 V 3291.2 H 13484 V 2003.69"
         style="fill:#a6a7aa;fill-opacity:1;fill-rule:nonzero;stroke:none"
         id="path100" /><path
         d="m 13930.8,2003.69 h -319.5 v 1800.98 h 319.5 V 2003.69"
         style="fill:#a6a7aa;fill-opacity:1;fill-rule:nonzero;stroke:none"
         id="path102" /><path
         d="m 5863.47,2783.71 c 0,279.14 -173.8,517.49 -419,613.31 141.47,104.4 233.65,271.85 233.65,461.19 0,316.74 -256.83,573.53 -573.56,573.53 -316.8,0 -573.56,-256.79 -573.56,-573.53 0,-189.34 92.16,-356.79 233.65,-461.19 -245.21,-95.82 -419.01,-334.17 -419.01,-613.31 v -411.48 h 593.67 l -11.59,19.8 88.42,615.5 -88.42,197.23 88.42,197.23 h 176.84 l 88.4,-197.23 -88.4,-197.23 88.4,-615.5 -11.58,-19.8 h 593.67 v 411.48"
         style="fill:#dcdcdb;fill-opacity:1;fill-rule:nonzero;stroke:none"
         id="path104" /><path
         d="m 5192.98,3007.53 88.4,197.23 -88.4,197.23 h -176.84 l -88.42,-197.23 88.42,-197.23 -88.42,-615.5 11.59,-19.8 151.7,-259.48 h 27.11 l 151.68,259.48 11.58,19.8 -88.4,615.5"
         style="fill:#4674b7;fill-opacity:1;fill-rule:nonzero;stroke:none"
         id="path106" /><path
         d="m 3815.92,10154.4 c -166.82,0 -318.06,-66.3 -429.1,-173.89 l 429.1,-442.96 v 616.85"
         style="fill:#b6986d;fill-opacity:1;fill-rule:nonzero;stroke:none"
         id="path108" /><path
         d="m 3359.65,9813.07 c -115.72,-112.12 -187.77,-269.06 -187.77,-442.95 0,-132.91 42.18,-255.92 113.7,-356.61 l 503.16,356.61 -429.09,442.95"
         style="fill:#a6a7aa;fill-opacity:1;fill-rule:nonzero;stroke:none"
         id="path110" /><path
         d="m 4554.2,9343.61 c -0.09,27.5 -2.08,54.53 -5.58,81.07 -1.33,10.07 -2.9,20.07 -4.7,29.97 -3.9,21.43 -8.86,42.49 -14.89,63.09 -2.58,8.88 -5.36,17.65 -8.34,26.36 -6.48,19.07 -13.86,37.71 -22.09,55.89 -3.56,7.94 -7.28,15.76 -11.17,23.51 -8.6,17.11 -17.94,33.78 -28.01,49.97 -4.42,7.1 -8.9,14.16 -13.59,21.07 -11.63,17.07 -24.08,33.58 -37.28,49.4 -5.23,6.27 -10.58,12.47 -16.08,18.57 -12.31,13.65 -25.26,26.72 -38.73,39.28 -5.98,5.56 -12.09,11.01 -18.28,16.35 -14.02,12.09 -28.56,23.56 -43.61,34.38 -6.72,4.88 -13.52,9.62 -20.45,14.2 -15.77,10.47 -32.01,20.29 -48.73,29.28 -7.54,4.07 -15.19,7.98 -22.91,11.76 -19.74,9.62 -40.05,18.23 -60.88,25.77 -8.56,3.09 -17.16,6.06 -25.88,8.78 -20.27,6.35 -40.95,11.7 -62.02,16.02 -9.71,1.97 -19.52,3.73 -29.39,5.26 -23.34,3.6 -47.13,5.8 -71.23,6.76 -8.38,0.31 -16.78,0.64 -25.24,0.64 -6.78,0 -12.25,-5.49 -12.25,-12.25 v -25.9 -77.99 -34.66 -77.99 -34.67 -86.68 -34.65 -78.01 -34.66 -77.98 -34.68 -12.71 l -43.6,-30.86 -119.01,-84.34 -267.84,-189.84 -67.55,-47.9 c -2.65,-1.86 -4.46,-4.72 -5.01,-7.91 -0.53,-3.21 0.23,-6.52 2.09,-9.17 0.76,-1.06 1.61,-2.07 2.37,-3.11 10.88,-15.11 22.48,-29.55 34.53,-43.51 5.36,-6.19 10.74,-12.35 16.34,-18.32 12.58,-13.48 25.74,-26.33 39.38,-38.57 6.11,-5.5 12.31,-10.84 18.58,-16.08 15.92,-13.21 32.28,-25.8 49.34,-37.34 6.94,-4.7 14.09,-9.06 21.21,-13.47 16.24,-10.09 32.88,-19.45 49.95,-28.05 7.76,-3.85 15.53,-7.68 23.43,-11.23 18.27,-8.25 37.03,-15.46 56.05,-21.94 8.72,-2.95 17.46,-5.79 26.29,-8.35 20.65,-6.07 41.6,-11.24 62.87,-15.16 9.96,-1.81 20.01,-3.24 30.05,-4.56 26.72,-3.58 53.77,-5.55 81.06,-5.64 l 1.72,-0.06 c 11.34,0 22.61,0.35 33.81,0.94 30.36,1.61 60.14,5.43 89.23,11.23 15.44,3.08 30.64,6.81 45.64,10.98 45.91,12.79 89.78,30.52 130.84,52.83 41.77,22.72 80.61,50.16 115.99,81.36 19.93,17.56 38.72,36.34 56.25,56.25 31.25,35.41 58.67,74.22 81.37,116.03 22.34,41.04 40.04,84.92 52.84,130.8 4.18,15.03 7.9,30.23 10.99,45.69 5.78,29.05 9.6,58.85 11.23,89.2 0.59,11.22 0.93,22.47 0.93,33.82 l -0.04,1.73"
         style="fill:#dcdcdb;fill-opacity:1;fill-rule:nonzero;stroke:none"
         id="path112" /><path
         d="m 4672.27,7328.87 c -174.68,79.47 -252.14,286.26 -172.66,460.94 79.46,174.68 286.25,252.14 460.94,172.67 174.69,-79.49 252.15,-286.25 172.67,-460.94 -79.48,-174.68 -286.25,-252.16 -460.95,-172.67 z m 674.42,-52.79 117.9,-53.63 92.79,203.97 -117.89,53.65 c 0,0 -34.41,31.6 -38.86,114.6 1.45,16.65 2.2,33.29 2.2,49.9 8.68,88.53 47.47,119.54 47.47,119.54 l 121.29,45.42 -78.61,209.86 -121.3,-45.43 c 0,0 -51.66,-2.18 -118.28,62.75 -4.7,5.26 -9.47,10.46 -14.38,15.56 -63.26,72.64 -57.35,125.65 -57.35,125.65 l 53.64,117.91 -203.98,92.8 -53.64,-117.9 c 0,0 -36.07,-39.29 -132.42,-39.31 -7.21,0.34 -14.42,0.52 -21.64,0.6 l -0.13,0.01 c -1.99,0.03 -3.99,0.07 -5.98,0.06 -88.52,8.68 -119.53,47.46 -119.53,47.46 l -45.43,121.3 -209.85,-78.6 45.42,-121.3 c 0,0 2.18,-51.66 -62.73,-118.27 -5.27,-4.72 -10.49,-9.52 -15.61,-14.44 -72.63,-63.23 -125.62,-57.31 -125.62,-57.31 l -117.9,53.64 -92.8,-203.99 117.9,-53.63 c 0,0 39.27,-36.07 39.3,-132.39 -0.33,-7.23 -0.52,-14.47 -0.6,-21.7 v -0.11 c -0.02,-1.99 -0.06,-3.99 -0.06,-5.98 -8.69,-88.51 -47.47,-119.52 -47.47,-119.52 l -121.29,-45.42 78.61,-209.87 121.29,45.44 c 0,0 51.65,2.17 118.25,-62.71 9.61,-10.79 19.67,-21.22 30.11,-31.33 51.19,-65.5 46,-111.9 46,-111.9 l -53.64,-117.91 203.98,-92.79 53.63,117.89 c 0,0 41.45,45.18 154.19,38.7 l -0.45,0.49 c 93.44,-7.38 125.97,-48.02 125.97,-48.02 l 45.43,-121.29 209.84,78.62 -45.42,121.28 c 0,0 -2.64,61.25 81.66,136.4 l -2.38,0.07 c 68.89,56.72 118.37,51.18 118.37,51.18"
         style="fill:#a5a7a9;fill-opacity:1;fill-rule:nonzero;stroke:none"
         id="path114" /><path
         d="m 5553.5,8270.7 c -72.23,67.22 -76.29,180.67 -9.07,252.9 67.22,72.22 180.67,76.29 252.88,9.07 72.24,-67.23 76.3,-180.67 9.09,-252.9 -67.23,-72.22 -180.68,-76.3 -252.9,-9.07 z m 320.24,-135.65 48.74,-45.37 78.5,84.34 -48.74,45.36 c 0,0 -11.63,21.02 -0.28,62.22 3.42,7.88 6.5,15.88 9.21,23.97 18.65,41.75 42.63,50.55 42.63,50.55 l 66.54,2.38 -4.13,115.15 -66.55,-2.39 c 0,0 -25.55,7.36 -47.44,49.88 -1.44,3.33 -2.92,6.64 -4.48,9.93 -19.01,45.73 -7.49,70.61 -7.49,70.61 l 45.38,48.75 -84.35,78.5 -45.36,-48.75 c 0,0 -24,-13.28 -70.97,2.41 -3.47,1.34 -6.95,2.61 -10.46,3.83 l -0.06,0.02 c -0.96,0.33 -1.94,0.68 -2.91,1 -41.74,18.66 -50.54,42.63 -50.54,42.63 l -2.39,66.55 -115.13,-4.13 2.38,-66.55 c 0,0 -7.35,-25.55 -49.87,-47.44 -3.34,-1.44 -6.66,-2.93 -9.96,-4.5 -45.72,-18.99 -70.59,-7.47 -70.59,-7.47 l -48.75,45.36 -78.5,-84.33 48.75,-45.37 c 0,0 13.28,-23.99 -2.41,-70.96 -1.34,-3.47 -2.62,-6.97 -3.84,-10.48 l -0.02,-0.06 c -0.33,-0.96 -0.67,-1.93 -0.99,-2.9 -18.66,-41.74 -42.63,-50.54 -42.63,-50.54 l -66.54,-2.39 4.12,-115.13 66.55,2.38 c 0,0 25.54,-7.36 47.43,-49.85 2.94,-6.83 6.14,-13.55 9.58,-20.18 14.29,-40.28 4.19,-62.06 4.19,-62.06 l -45.37,-48.75 84.35,-78.48 45.36,48.73 c 0,0 27.57,15.28 81.48,-6.26 l -0.13,0.32 c 44.35,-18.83 53.6,-43.95 53.6,-43.95 l 2.38,-66.54 115.13,4.13 -2.38,66.54 c 0,0 8.69,30.3 62.05,53.2 l -1.15,0.42 c 42.83,16.43 66.06,5.67 66.06,5.67"
         style="fill:#4674b7;fill-opacity:1;fill-rule:nonzero;stroke:none"
         id="path116" /><path
         d="m 15514.2,7675.2 h -3587.4 v 2352.4 h 3587.4 V 7675.2"
         style="fill:#a6a7aa;fill-opacity:1;fill-rule:nonzero;stroke:none"
         id="path118" /><path
         d="m 15203.3,7996.68 h -2965.6 v 1709.41 h 2965.6 V 7996.68"
         style="fill:#ffffff;fill-opacity:1;fill-rule:nonzero;stroke:none"
         id="path120" /><path
         d="m 13890.5,8149.8 -213.3,1262.36 -275.4,-588.92 h -637.9 v 50.63 h 605.7 l 330.5,706.75 201.2,-1190.57 166.4,633.7 h 609.5 v -50.63 h -570.5 l -216.2,-823.32"
         style="fill:#b6986d;fill-opacity:1;fill-rule:nonzero;stroke:none"
         id="path122" /><path
         d="m 14255.4,7372.91 h -1069.8 v 302.29 h 1069.8 v -302.29"
         style="fill:#595a5c;fill-opacity:1;fill-rule:nonzero;stroke:none"
         id="path124" /><path
         d="m 14569.5,7209.86 h -1698 v 163.05 h 1698 v -163.05"
         style="fill:#a6a7aa;fill-opacity:1;fill-rule:nonzero;stroke:none"
         id="path126" /><path
         d="m 12127.2,7875.57 h 3186.6 v 1951.65 h -3186.6 z m 3204.7,-18.09 H 12109.1 V 9845.3 h 3222.8 V 7857.48"
         style="fill:#e6e6e6;fill-opacity:1;fill-rule:nonzero;stroke:none"
         id="path128" /><path
         d="m 3364.85,4584.11 h -0.87 v 206.01 c -230.11,0 -416.65,186.54 -416.65,416.66 0,230.1 186.54,416.65 416.65,416.65 v 206.02 c 317.04,0 578.73,-236.92 617.68,-543.37 -38.95,306.45 -300.64,543.38 -617.68,543.38 -343.89,0 -622.68,-278.79 -622.68,-622.68 0,-343.9 278.79,-622.68 622.68,-622.68 182.7,0 347.02,78.68 460.92,204 -113.73,-125.12 -277.7,-203.74 -460.05,-203.99"
         style="fill:#4674b7;fill-opacity:1;fill-rule:nonzero;stroke:none"
         id="path130" /><path
         d="m 3363.98,5829.45 v -206.02 c 230.11,0 416.65,-186.55 416.65,-416.65 0,-230.12 -186.54,-416.66 -416.65,-416.66 v -206.01 h 0.87 c 182.35,0.25 346.32,78.87 460.05,203.99 3.35,3.69 6.65,7.41 9.91,11.18 94.6,109.21 151.85,251.67 151.85,407.5 0,26.86 -1.7,53.33 -5,79.3 -38.95,306.45 -300.64,543.37 -617.68,543.37"
         style="fill:#2c436d;fill-opacity:1;fill-rule:nonzero;stroke:none"
         id="path132" /><path
         d="m 4703.82,5107.29 c 0,71.05 57.61,128.65 128.65,128.65 71.07,0 128.66,-57.6 128.66,-128.65 0,-71.06 -57.59,-128.66 -128.66,-128.66 -71.04,0 -128.65,57.6 -128.65,128.66 z m 298.48,0 c 0,93.78 -76.03,169.82 -169.82,169.82 v 83.98 h -0.01 c -140.18,0 -253.8,-113.63 -253.8,-253.8 0,-140.18 113.62,-253.81 253.8,-253.81 h 0.01 v 83.97 c 93.79,0 169.82,76.04 169.82,169.84"
         style="fill:#4674b7;fill-opacity:1;fill-rule:nonzero;stroke:none"
         id="path134" /><path
         d="m 5074.87,5182.76 c 3.44,-11.06 6.1,-22.46 8,-34.11 -1.9,11.65 -4.56,23.05 -8,34.11"
         style="fill:#4674b7;fill-opacity:1;fill-rule:nonzero;stroke:none"
         id="path136" /><path
         d="m 5066.34,5206.08 c 3.17,-7.51 5.99,-15.2 8.45,-23.05 -2.46,7.85 -5.28,15.54 -8.45,23.05"
         style="fill:#4674b7;fill-opacity:1;fill-rule:nonzero;stroke:none"
         id="path138" /><path
         d="m 5061.26,5217.32 c 0.94,-1.94 1.78,-3.93 2.67,-5.9 -0.89,1.97 -1.73,3.96 -2.67,5.9"
         style="fill:#4674b7;fill-opacity:1;fill-rule:nonzero;stroke:none"
         id="path140" /><path
         d="m 5083.36,5068.63 c -5.57,-36.46 -18.96,-70.33 -38.3,-99.95 19.34,29.62 32.73,63.49 38.3,99.95"
         style="fill:#4674b7;fill-opacity:1;fill-rule:nonzero;stroke:none"
         id="path142" /><path
         d="m 5082.87,5148.65 c -1.9,11.65 -4.56,23.05 -8,34.11 l -0.08,0.27 c -2.46,7.85 -5.28,15.54 -8.45,23.05 -0.76,1.8 -1.61,3.56 -2.41,5.34 -0.89,1.97 -1.73,3.96 -2.67,5.9 -41,85.07 -128.03,143.78 -228.78,143.78 v -0.01 -83.98 c 93.79,0 169.82,-76.04 169.82,-169.82 0,-93.8 -76.03,-169.84 -169.82,-169.84 v -83.97 -0.01 c 89.01,0 167.27,45.86 212.58,115.21 19.34,29.62 32.73,63.49 38.3,99.95 1.92,12.61 2.93,25.51 2.93,38.66 0,8.75 -0.45,17.41 -1.32,25.94 -0.53,5.2 -1.26,10.33 -2.1,15.42"
         style="fill:#2c436d;fill-opacity:1;fill-rule:nonzero;stroke:none"
         id="path144" /><path
         d="m 3762.31,6185.21 c 118.4,0 214.39,95.99 214.39,214.38 0,118.41 -95.99,214.4 -214.39,214.4 -118.4,0 -214.4,-95.99 -214.4,-214.4 0,-118.39 96,-214.38 214.4,-214.38"
         style="fill:#b6986d;fill-opacity:1;fill-rule:nonzero;stroke:none"
         id="path146" /><path
         d="m 2878.81,4258.29 c -153.75,0 -278.39,-124.64 -278.39,-278.39 0,-153.75 124.64,-278.4 278.39,-278.4 153.75,0 278.39,124.65 278.39,278.4 0,153.75 -124.64,278.39 -278.39,278.39"
         style="fill:#a6a7aa;fill-opacity:1;fill-rule:nonzero;stroke:none"
         id="path148" /><path
         d="m 2652.29,6123.17 c 0,63.81 -51.72,115.53 -115.51,115.53 -63.81,0 -115.52,-51.72 -115.52,-115.53 0,-63.8 51.71,-115.51 115.52,-115.51 63.79,0 115.51,51.71 115.51,115.51"
         style="fill:#a6a7aa;fill-opacity:1;fill-rule:nonzero;stroke:none"
         id="path150" /><path
         d="m 4080.41,5952.29 c -63.79,0 -115.52,-51.72 -115.52,-115.52 0,-63.8 51.73,-115.52 115.52,-115.52 63.81,0 115.53,51.72 115.53,115.52 0,63.8 -51.72,115.52 -115.53,115.52"
         style="fill:#a6a7aa;fill-opacity:1;fill-rule:nonzero;stroke:none"
         id="path152" /><path
         d="m 1890.66,5238.2 c -87.02,0 -157.55,-70.54 -157.55,-157.56 0,-87.02 70.53,-157.55 157.55,-157.55 87.02,0 157.55,70.53 157.55,157.55 0,87.02 -70.53,157.56 -157.55,157.56"
         style="fill:#4674b7;fill-opacity:1;fill-rule:nonzero;stroke:none"
         id="path154" /><path
         d="M 15965.5,971.199 H 14611.3 V 2731.72 h 1354.2 V 971.199"
         style="fill:#595a5c;fill-opacity:1;fill-rule:nonzero;stroke:none"
         id="path156" /><path
         d="m 15806.9,2110.33 h -1037.1 v 484.25 h 1037.1 v -484.25"
         style="fill:#ffffff;fill-opacity:1;fill-rule:nonzero;stroke:none"
         id="path158" /><path
         d="m 15209.8,1882.08 h -131.4 v 131.37 H 14967 v -131.37 h -131.4 v -111.42 h 131.4 v -131.38 h 111.4 v 131.38 h 131.4 v 111.42"
         style="fill:#ffffff;fill-opacity:1;fill-rule:nonzero;stroke:none"
         id="path160" /><path
         d="m 15194.4,1409.28 -78.8,78.8 -92.9,-92.89 -92.9,92.89 -78.8,-78.8 92.9,-92.89 -92.9,-92.89 78.8,-78.8 92.9,92.91 92.9,-92.91 78.8,78.8 -92.9,92.89 92.9,92.89"
         style="fill:#ffffff;fill-opacity:1;fill-rule:nonzero;stroke:none"
         id="path162" /><path
         d="m 15746.8,1882.08 v -111.42 h -374.1 v 111.42 h 374.1"
         style="fill:#ffffff;fill-opacity:1;fill-rule:nonzero;stroke:none"
         id="path164" /><path
         d="m 15652.6,1488.08 78.8,-78.8 -264.5,-264.58 -78.8,78.8 264.5,264.58"
         style="fill:#ffffff;fill-opacity:1;fill-rule:nonzero;stroke:none"
         id="path166" /><path
         d="m 15486.8,1486.28 c 26.8,-26.78 26.8,-70.2 0,-96.98 -26.7,-26.79 -70.2,-26.79 -96.9,0 -26.8,26.78 -26.8,70.2 0,96.98 26.7,26.78 70.2,26.78 96.9,0"
         style="fill:#ffffff;fill-opacity:1;fill-rule:nonzero;stroke:none"
         id="path168" /><path
         d="m 15729.6,1243.48 c 26.8,-26.78 26.8,-70.18 0,-96.98 -26.7,-26.8 -70.2,-26.8 -96.9,0 -26.8,26.8 -26.8,70.2 0,96.98 26.7,26.79 70.2,26.79 96.9,0"
         style="fill:#ffffff;fill-opacity:1;fill-rule:nonzero;stroke:none"
         id="path170" /><path
         d="m 6853.26,9515.31 h -251.55 v 166.11 h 251.55 v -166.11"
         style="fill:#a6a7aa;fill-opacity:1;fill-rule:nonzero;stroke:none"
         id="path172" /><path
         d="m 6853.26,9736.75 h -251.55 v 166.12 h 251.55 v -166.12"
         style="fill:#dcdcdb;fill-opacity:1;fill-rule:nonzero;stroke:none"
         id="path174" /><path
         d="m 6853.26,8933.04 h -251.55 v 518.69 h 251.55 v -518.69"
         style="fill:#4f4f50;fill-opacity:1;fill-rule:nonzero;stroke:none"
         id="path176" /><path
         d="m 6535.81,9515.31 h -251.56 v 166.11 h 251.56 v -166.11"
         style="fill:#a6a7aa;fill-opacity:1;fill-rule:nonzero;stroke:none"
         id="path178" /><path
         d="m 6535.81,9736.75 h -251.56 v 166.12 h 251.56 v -166.12"
         style="fill:#a6a7aa;fill-opacity:1;fill-rule:nonzero;stroke:none"
         id="path180" /><path
         d="m 6535.81,9956.56 h -251.56 v 166.14 h 251.56 v -166.14"
         style="fill:#dcdcdb;fill-opacity:1;fill-rule:nonzero;stroke:none"
         id="path182" /><path
         d="m 6535.81,10178 h -251.56 v 166.1 h 251.56 V 10178"
         style="fill:#dcdcdb;fill-opacity:1;fill-rule:nonzero;stroke:none"
         id="path184" /><path
         d="m 6535.81,8933.04 h -251.56 v 518.69 h 251.56 v -518.69"
         style="fill:#4f4f50;fill-opacity:1;fill-rule:nonzero;stroke:none"
         id="path186" /><path
         d="m 7179.06,9289.74 h -251.55 v 166.11 h 251.55 v -166.11"
         style="fill:#a6a7aa;fill-opacity:1;fill-rule:nonzero;stroke:none"
         id="path188" /><path
         d="m 7179.06,9511.18 h -251.55 v 166.12 h 251.55 v -166.12"
         style="fill:#dcdcdb;fill-opacity:1;fill-rule:nonzero;stroke:none"
         id="path190" /><path
         d="m 7464.68,8933.04 h -251.56 v 166.12 h 251.56 v -166.12"
         style="fill:#4f4f50;fill-opacity:1;fill-rule:nonzero;stroke:none"
         id="path192" /><path
         d="m 7179.06,8933.04 h -251.55 v 293.13 h 251.55 v -293.13"
         style="fill:#4f4f50;fill-opacity:1;fill-rule:nonzero;stroke:none"
         id="path194" /><path
         d="m 806.973,6064.59 c -52.16,-17.22 -80.481,-73.47 -63.262,-125.63 17.234,-52.15 73.477,-80.48 125.637,-63.26 52.168,17.22 80.488,73.47 63.257,125.64 -17.214,52.15 -73.464,80.48 -125.632,63.25"
         style="fill:#6892b2;fill-opacity:1;fill-rule:nonzero;stroke:none"
         id="path196" /><path
         d="m 1254.38,7091.73 c -52.15,-17.21 -80.47,-73.46 -63.26,-125.62 17.23,-52.16 73.48,-80.49 125.63,-63.26 52.17,17.22 80.49,73.46 63.27,125.63 -17.23,52.16 -73.48,80.48 -125.64,63.25"
         style="fill:#a6a7aa;fill-opacity:1;fill-rule:nonzero;stroke:none"
         id="path198" /><path
         d="m 2065.59,6879.48 c -52.16,-17.22 -80.49,-73.47 -63.26,-125.64 17.21,-52.16 73.47,-80.48 125.63,-63.26 52.16,17.23 80.48,73.48 63.25,125.64 -17.23,52.16 -73.47,80.48 -125.62,63.26"
         style="fill:#a6a7aa;fill-opacity:1;fill-rule:nonzero;stroke:none"
         id="path200" /><path
         d="m 2588.49,8036.5 c -52.15,-17.22 -80.47,-73.47 -63.26,-125.63 17.22,-52.15 73.47,-80.48 125.63,-63.25 52.17,17.21 80.48,73.47 63.26,125.63 -17.23,52.16 -73.47,80.48 -125.63,63.25"
         style="fill:#b6986d;fill-opacity:1;fill-rule:nonzero;stroke:none"
         id="path202" /><path
         d="m 3199.71,7596.75 c -52.16,-17.22 -80.48,-73.47 -63.25,-125.63 17.22,-52.16 73.46,-80.49 125.62,-63.25 52.17,17.21 80.48,73.46 63.26,125.62 -17.21,52.16 -73.46,80.48 -125.63,63.26"
         style="fill:#a6a7aa;fill-opacity:1;fill-rule:nonzero;stroke:none"
         id="path204" /><path
         d="m 3726.01,8137.29 c -17.23,52.16 -73.47,80.49 -125.64,63.26 -52.15,-17.22 -80.47,-73.47 -63.25,-125.63 17.23,-52.16 73.47,-80.48 125.63,-63.26 52.16,17.23 80.47,73.48 63.26,125.63"
         style="fill:#a6a7aa;fill-opacity:1;fill-rule:nonzero;stroke:none"
         id="path206" /><path
         d="m 1668.63,3913.66 c -103.67,0 -158.61,0 -187.73,0 -32.84,0 -32.85,0 -32.85,0 -29.13,0 -84.07,0 -187.74,0 -220.58,0 -215.89,-28.16 -197.12,-131.41 18.77,-103.25 267.51,-235.63 267.51,-235.63 l 104.2,-116.37 163.33,116.37 c 0,0 248.74,132.38 267.52,235.63 18.77,103.25 23.46,131.41 -197.12,131.41"
         style="fill:#a6a7aa;fill-opacity:1;fill-rule:nonzero;stroke:none"
         id="path208" /><path
         d="m 1260.31,3911.86 c -120.99,0 -173.27,-8.75 -192.9,-32.27 -16.48,-19.75 -10.9,-50.49 -2.44,-97.02 18.41,-101.21 264.11,-233.04 266.58,-234.36 l 0.5,-0.39 103.12,-115.15 162.01,115.42 c 2.68,1.44 248.39,133.28 266.78,234.48 8.47,46.53 14.06,77.27 -2.43,97.02 -19.63,23.52 -71.91,32.27 -192.9,32.27 z m 174.32,-484.02 -105.06,117.34 c -4.67,2.5 -64.95,35.1 -126.63,79.06 -86.04,61.34 -133.65,114.39 -141.52,157.69 -8.65,47.53 -14.36,78.93 3.22,99.98 20.67,24.78 71.88,33.56 195.67,33.56 h 408.32 c 123.79,0 174.99,-8.78 195.68,-33.56 17.57,-21.05 11.86,-52.45 3.22,-99.98 -7.87,-43.3 -55.49,-96.35 -141.53,-157.69 -63.89,-45.54 -126.3,-78.89 -126.92,-79.22 l -164.45,-117.18"
         style="fill:#ffffff;fill-opacity:1;fill-rule:nonzero;stroke:none"
         id="path210" /><path
         d="m 2052.72,3039.23 c 0,-281.46 -263.36,-509.63 -588.25,-509.63 -324.88,0 -588.247,228.17 -588.247,509.63 0,281.47 263.367,666.87 588.247,666.87 324.89,0 588.25,-385.4 588.25,-666.87"
         style="fill:#a6a7aa;fill-opacity:1;fill-rule:nonzero;stroke:none"
         id="path212" /><path
         d="m 1464.47,3651.86 c -76.8,0 -227.49,-27 -373.79,-207.77 -98.825,-122.11 -160.211,-277.24 -160.211,-404.86 0,-251.1 239.551,-455.38 534.001,-455.38 294.46,0 534.01,204.28 534.01,455.38 0,127.62 -61.4,282.75 -160.22,404.86 -146.31,180.77 -296.99,207.77 -373.79,207.77 z m 0,-1176.51 c -170.17,0 -330.51,57.72 -451.47,162.52 -123.187,106.71 -191.027,249.26 -191.027,401.36 0,153.6 68.925,330.47 184.377,473.11 60.12,74.3 128.11,133.56 202.08,176.16 82.79,47.68 168.93,71.85 256.04,71.85 87.11,0 173.25,-24.17 256.05,-71.85 73.96,-42.6 141.95,-101.86 202.08,-176.16 115.45,-142.64 184.37,-319.51 184.37,-473.11 0,-152.1 -67.84,-294.65 -191.02,-401.36 -120.97,-104.8 -281.3,-162.52 -451.48,-162.52"
         style="fill:#ffffff;fill-opacity:1;fill-rule:nonzero;stroke:none"
         id="path214" /><path
         d="m 1530.05,2937.06 c -5.63,-1.94 -11.87,-3.53 -18.64,-4.82 v 124.2 c 18.26,-5.26 32.55,-10.99 42.82,-17.2 15.47,-9.6 23.21,-23.15 23.21,-40.66 0,-29.98 -15.8,-50.49 -47.39,-61.52 z m -148.42,260.48 c -17.21,9.35 -25.82,23.5 -25.82,42.46 0,20.62 8.73,36.69 26.19,48.2 9.92,6.55 21.81,11.16 35.53,13.99 v -117.78 c -16.92,4.81 -28.9,9.19 -35.9,13.13 z m 255.25,-82.39 c -20.37,16.07 -50.93,28.9 -91.72,38.5 l -33.75,7.96 v 133.61 c 2.29,-0.96 4.53,-1.97 6.7,-3.06 26.55,-13.43 40.82,-36.1 42.78,-67.99 h 106.49 c -1.94,56.36 -22.88,99.35 -62.82,128.97 -27.2,20.17 -58.25,33.46 -93.15,39.9 v 77.79 h -93.88 v -75.58 c -47.23,-5.39 -84.52,-20.29 -111.81,-44.8 -34.97,-31.43 -52.44,-70.88 -52.44,-118.37 0,-52.05 17.86,-90.3 53.6,-114.77 20.4,-14.13 57.31,-27.26 110.65,-39.38 v -144.15 c -20.28,5.26 -35.95,14.36 -46.9,27.39 -10.04,11.98 -16.78,30.09 -20.21,54.32 h -105.78 c 0,-55.17 20,-98.52 60,-130.06 29.51,-23.27 67.17,-37.92 112.89,-44.02 v -76.53 h 93.88 v 75.52 c 48.38,5.42 87.32,20.64 116.7,45.75 37.46,32.02 56.19,72.26 56.19,120.71 0,47.25 -15.81,83.35 -47.42,108.29"
         style="fill:#ffffff;fill-opacity:1;fill-rule:nonzero;stroke:none"
         id="path216" /><path
         d="m 16592.4,7784.99 c -10,-3.47 -21.1,-6.29 -33.2,-8.58 v 221.14 c 32.5,-9.36 57.9,-19.56 76.2,-30.62 27.6,-17.08 41.4,-41.22 41.4,-72.39 0,-53.39 -28.1,-89.91 -84.4,-109.55 z m -264.3,463.82 c -30.6,16.67 -46,41.86 -46,75.6 0,36.73 15.6,65.35 46.7,85.85 17.6,11.64 38.8,19.87 63.2,24.9 v -209.72 c -30.1,8.56 -51.4,16.35 -63.9,23.37 z m 454.5,-146.7 c -36.2,28.61 -90.7,51.46 -163.3,68.55 l -60.1,14.17 v 237.92 c 4.1,-1.7 8.1,-3.51 11.9,-5.44 47.3,-23.93 72.7,-64.29 76.2,-121.08 h 189.6 c -3.4,100.36 -40.7,176.92 -111.8,229.67 -48.5,35.91 -103.8,59.57 -165.9,71.03 v 138.51 H 16392 v -134.56 c -84.1,-9.6 -150.5,-36.14 -199.1,-79.79 -62.2,-55.95 -93.3,-126.2 -93.3,-210.77 0,-92.68 31.8,-160.8 95.4,-204.37 36.3,-25.16 102,-48.53 197,-70.11 v -256.69 c -36.1,9.36 -64,25.57 -83.5,48.76 -17.9,21.35 -29.9,53.6 -36,96.74 h -188.3 c 0,-98.24 35.6,-175.44 106.8,-231.59 52.6,-41.44 119.6,-67.53 201,-78.4 v -136.27 h 167.2 v 134.48 c 86.2,9.65 155.5,36.74 207.8,81.47 66.7,57.02 100.1,128.66 100.1,214.93 0,84.14 -28.2,148.42 -84.5,192.84"
         style="fill:#a6a7aa;fill-opacity:1;fill-rule:nonzero;stroke:none"
         id="path218" /><path
         d="M 7543.68,2073.13 H 7295.4 l -235.52,-400.1 -236.93,400.1 h -249.71 l 303.99,-505.87 h -113.52 v -166.38 h 181.25 v -30.72 H 6763.71 V 1203.8 h 181.25 V 989.902 h 222.75 V 1203.8 h 185.5 v 166.36 h -185.5 v 30.72 h 185.5 v 166.38 h -114.2 l 304.67,505.87"
         style="fill:#a6a7aa;fill-opacity:1;fill-rule:nonzero;stroke:none"
         id="path220" /><path
         d="m 1763.74,8958.4 c -8.09,-64.7 -30.32,-116.84 -66.73,-156.37 -36.4,-39.56 -86.95,-59.32 -151.66,-59.32 -47.64,0 -88.08,9.2 -121.33,27.64 -33.25,18.4 -60.22,42.9 -80.88,73.47 -3.57,5.27 -6.91,10.7 -10.14,16.19 h 187.41 v 158.1 h -234.4 c -0.9,9.65 -1.52,19.38 -1.85,29.18 h 236.25 v 158.09 h -217.66 c 9.45,32.38 22.87,61.75 40.39,88.01 20.66,31.01 47.63,55.72 80.88,74.15 33.25,18.41 73.69,27.64 121.33,27.64 26.06,0 51,-4.28 74.83,-12.81 23.79,-8.55 45.15,-20.46 64.02,-35.72 18.88,-15.3 34.59,-33.03 47.19,-53.26 12.57,-20.22 20.66,-42.46 24.26,-66.72 h 204.91 c -6.29,55.71 -21.57,105.15 -45.83,148.28 -24.27,43.14 -55.06,79.31 -92.35,108.52 -37.3,29.2 -79.54,51.44 -126.72,66.73 -47.17,15.27 -97.29,22.92 -150.31,22.92 -73.7,0 -139.99,-13.04 -198.84,-39.09 -58.87,-26.08 -108.51,-62.01 -148.96,-107.85 -40.44,-45.83 -71.45,-99.54 -93.01,-161.1 -6.8,-19.38 -12.52,-39.29 -17.17,-59.7 H 960.293 v -158.09 h 112.147 c 0.26,-9.82 0.73,-19.56 1.43,-29.18 H 960.293 v -158.1 h 147.457 c 21.4,-57 51.32,-106.9 89.8,-149.65 40.45,-44.95 90.09,-80.21 148.96,-105.82 58.85,-25.62 125.14,-38.43 198.84,-38.43 59.32,0 113.68,9 163.12,26.97 49.41,17.96 92.56,44.02 129.41,78.18 36.85,34.15 66.5,75.49 88.98,124.02 22.45,48.54 36.39,102.9 41.78,163.12 h -204.9"
         style="fill:#a6a7aa;fill-opacity:1;fill-rule:nonzero;stroke:none"
         id="path222" /><path
         d="m 3061.6,2522.09 c -26.01,5.56 -52.23,11.46 -77.94,17.55 l 12.49,52.79 c 25.32,-5.99 51.15,-11.81 76.8,-17.29 l -11.35,-53.05"
         style="fill:#d5772e;fill-opacity:1;fill-rule:nonzero;stroke:none"
         id="path224" /><path
         d="m 3266.19,2135.06 c 65.46,48.31 108.12,125.79 108.12,213.4 0,146.55 -118.84,265.37 -265.39,265.37 -146.59,0 -265.38,-118.82 -265.38,-265.37 0,-87.61 42.64,-165.09 108.1,-213.4 -113.46,-44.34 -193.88,-154.62 -193.88,-283.78 v -190.39 h 702.31 v 190.39 c 0,129.16 -80.42,239.44 -193.88,283.78"
         style="fill:#dcdcdb;fill-opacity:1;fill-rule:nonzero;stroke:none"
         id="path226" /><path
         d="m 3108.92,2613.83 c -134.05,0 -244.6,-99.5 -262.56,-228.62 5.35,-0.04 198.78,-0.77 262.56,118.22 0,0 62.37,-117.81 262.52,-118.22 -17.91,129.12 -128.47,228.62 -262.52,228.62"
         style="fill:#b6986d;fill-opacity:1;fill-rule:nonzero;stroke:none"
         id="path228" /><path
         d="m 5066.66,1252.38 c -28.22,28.96 -62.44,52.05 -100.77,67.02 61.45,45.4 101.51,118.15 101.51,200.4 0,11.77 -1.12,23.27 -2.69,34.58 -31,0.64 -189.48,8.82 -245.28,108.8 -55.79,-99.98 -214.26,-108.16 -245.27,-108.8 -1.56,-11.31 -2.69,-22.81 -2.69,-34.58 0,-82.25 40.05,-155 101.51,-200.4 -38.32,-14.97 -72.56,-38.06 -100.77,-67.02 -50.23,-51.48 -81.26,-121.78 -81.26,-199.38 V 874.199 h 328.48 328.49 V 1053 c 0,77.6 -31.04,147.9 -81.26,199.38"
         style="fill:#dcdcdb;fill-opacity:1;fill-rule:nonzero;stroke:none"
         id="path230" /><path
         d="m 4539.26,1555.1 v -179.58 c 0,-45.45 11.87,-88.06 32.53,-125.1 28.06,28.8 62.12,51.77 100.24,66.67 -61.13,45.16 -100.98,117.53 -100.98,199.35 0,11.71 1.12,23.15 2.68,34.4 30.83,0.64 188.49,8.78 243.99,108.24 v 105.14 0.08 7.47 0.03 40.87 h -20.9 c -142.22,0 -257.56,-115.31 -257.56,-257.57"
         style="fill:#4674b7;fill-opacity:1;fill-rule:nonzero;stroke:none"
         id="path232" /><path
         d="m 4842.14,1812.67 h -24.42 v -40.87 l 1.24,0.07 h 0.48 0.58 l 1.72,-0.13 -2.3,0.13 -1.72,-0.1 v -7.46 l 1.24,0.04 0.52,-0.03 -1.76,-0.1 v -105.14 l 1.24,2.12 0.52,-0.82 0.54,0.82 c 0,0 39.52,-66.27 144.64,-96.12 l 2.52,-0.71 c 3.97,-1.12 8.02,-2.13 12.19,-3.12 5.62,-1.34 11.42,-2.57 17.44,-3.63 2.79,-0.54 5.62,-1.03 8.49,-1.49 7.6,-1.22 15.43,-2.29 23.55,-3.08 1.63,-0.16 3.28,-0.3 4.9,-0.46 9.58,-0.83 19.44,-1.41 29.73,-1.62 l 0.7,-0.02 1.04,-0.02 c 1.6,-11.31 2.68,-22.76 2.68,-34.49 0,-81.83 -39.81,-154.2 -100.98,-199.35 37.87,-14.78 71.67,-37.52 99.64,-66.04 l 0.64,-0.63 c 20.65,37.04 32.5,79.65 32.5,125.1 v 179.58 c 0,142.26 -115.31,257.57 -257.56,257.57"
         style="fill:#4674b7;fill-opacity:1;fill-rule:nonzero;stroke:none"
         id="path234" /><path
         d="m 8405.43,10656.9 v -98 h 928.7 V 9401.08 h 90.73 V 10656.9 H 8405.43"
         style="fill:#a6a7aa;fill-opacity:1;fill-rule:nonzero;stroke:none"
         id="path236" /><path
         d="m 9128.39,9232.15 h -888.72 v 1297.75 h 1065.5 V 9427.85 l -176.78,-195.7"
         style="fill:#dcdcdb;fill-opacity:1;fill-rule:nonzero;stroke:none"
         id="path238" /><path
         d="m 9305.17,9427.85 h -176.78 v -195.7 z"
         style="fill:#a6a7aa;fill-opacity:1;fill-rule:nonzero;stroke:none"
         id="path240" /><path
         d="m 9208.46,10338.4 h -644.54 v 18.1 h 644.54 v -18.1"
         style="fill:#595a5c;fill-opacity:1;fill-rule:nonzero;stroke:none"
         id="path242" /><path
         d="m 9208.46,10269.1 h -884.3 v 18 h 884.3 v -18"
         style="fill:#595a5c;fill-opacity:1;fill-rule:nonzero;stroke:none"
         id="path244" /><path
         d="m 9208.46,10191.6 h -884.3 v 18.1 h 884.3 v -18.1"
         style="fill:#595a5c;fill-opacity:1;fill-rule:nonzero;stroke:none"
         id="path246" /><path
         d="m 9208.46,9743.73 h -884.3 v 18.08 h 884.3 v -18.08"
         style="fill:#595a5c;fill-opacity:1;fill-rule:nonzero;stroke:none"
         id="path248" /><path
         d="m 9208.46,9666.26 h -884.3 v 18.09 h 884.3 v -18.09"
         style="fill:#595a5c;fill-opacity:1;fill-rule:nonzero;stroke:none"
         id="path250" /><path
         d="m 9208.46,9584.37 h -884.3 v 18.09 h 884.3 v -18.09"
         style="fill:#595a5c;fill-opacity:1;fill-rule:nonzero;stroke:none"
         id="path252" /><path
         d="m 9208.46,9506.9 h -884.3 v 18.09 h 884.3 v -18.09"
         style="fill:#595a5c;fill-opacity:1;fill-rule:nonzero;stroke:none"
         id="path254" /><path
         d="m 9033.13,9424.55 h -708.97 v 18.08 h 708.97 v -18.08"
         style="fill:#595a5c;fill-opacity:1;fill-rule:nonzero;stroke:none"
         id="path256" /><path
         d="m 8886.19,9832.76 h -562.03 v 276.64 h 562.03 v -276.64"
         style="fill:#4674b7;fill-opacity:1;fill-rule:nonzero;stroke:none"
         id="path258" /><path
         d="M 9190.69,9832.76 H 8936.2 v 276.64 h 254.49 v -276.64"
         style="fill:#b6986d;fill-opacity:1;fill-rule:nonzero;stroke:none"
         id="path260" /><path
         d="m 9837.2,991.5 h -899.49 l 146.44,396.02 h 606.61 L 9837.2,991.5"
         style="fill:#a6a7aa;fill-opacity:1;fill-rule:nonzero;stroke:none"
         id="path262" /><path
         d="m 10764.8,991.5 h -899.51 l 146.41,396.02 h 606.6 l 146.5,-396.02"
         style="fill:#a6a7aa;fill-opacity:1;fill-rule:nonzero;stroke:none"
         id="path264" /><path
         d="m 11692.4,991.5 h -899.5 l 146.4,396.02 h 606.6 l 146.5,-396.02"
         style="fill:#a6a7aa;fill-opacity:1;fill-rule:nonzero;stroke:none"
         id="path266" /><path
         d="m 10301,1437.73 h -899.5 l 146.44,396 h 606.66 l 146.4,-396"
         style="fill:#a6a7aa;fill-opacity:1;fill-rule:nonzero;stroke:none"
         id="path268" /><path
         d="m 11228.6,1437.73 h -899.5 l 146.4,396 h 606.6 l 146.5,-396"
         style="fill:#a6a7aa;fill-opacity:1;fill-rule:nonzero;stroke:none"
         id="path270" /><path
         d="m 10778.8,1869.15 h -899.45 l 146.45,395.99 h 606.6 l 146.4,-395.99"
         style="fill:#a6a7aa;fill-opacity:1;fill-rule:nonzero;stroke:none"
         id="path272" /><path
         d="m 15869.7,3385.31 v 75.24 h -34.8 v -75.24 c -228.8,8.94 -413.2,193.42 -422.2,422.23 h 75.2 v 34.78 h -75.2 c 9,228.81 193.4,413.29 422.2,422.23 v -75.24 h 34.8 v 75.24 c 228.8,-8.94 413.3,-193.42 422.3,-422.23 h -75.3 v -34.78 h 75.3 c -9,-228.81 -193.5,-413.29 -422.3,-422.23 z m 318.3,775.34 c -89.6,89.68 -208.9,139.06 -335.7,139.06 -126.8,0 -246,-49.38 -335.7,-139.06 -89.7,-89.67 -139.1,-208.9 -139.1,-335.72 0,-126.82 49.4,-246.05 139.1,-335.72 89.7,-89.67 208.9,-139.06 335.7,-139.06 126.8,0 246.1,49.39 335.7,139.06 89.7,89.67 139.1,208.9 139.1,335.72 0,126.82 -49.4,246.05 -139.1,335.72"
         style="fill:#595a5c;fill-opacity:1;fill-rule:nonzero;stroke:none"
         id="path274" /><path
         d="m 15869.7,4132.75 h -34.8 v -325.21 h 152.4 v 34.78 h -117.6 v 290.43"
         style="fill:#595a5c;fill-opacity:1;fill-rule:nonzero;stroke:none"
         id="path276" /><path
         d="m 10533.1,6786.39 -436.1,251.74 -436.02,-251.74 436.02,-251.75 436.1,251.75"
         style="fill:#4674b7;fill-opacity:1;fill-rule:nonzero;stroke:none"
         id="path278" /><path
         d="M 9660.98,6786.39 V 4010.77 L 10097,3759.02 v 2775.62 l -436.02,251.75"
         style="fill:#a6a7aa;fill-opacity:1;fill-rule:nonzero;stroke:none"
         id="path280" /><path
         d="M 10097,6534.64 V 3759.02 l 436.1,251.75 V 6786.39 L 10097,6534.64"
         style="fill:#dcdcdb;fill-opacity:1;fill-rule:nonzero;stroke:none"
         id="path282" /><path
         d="m 9879,4727.53 -436.03,251.75 -436.05,-251.75 436.05,-251.74 436.03,251.74"
         style="fill:#b6986d;fill-opacity:1;fill-rule:nonzero;stroke:none"
         id="path284" /><path
         d="M 9006.92,4727.53 V 3611.01 l 436.05,-251.75 v 1116.53 l -436.05,251.74"
         style="fill:#a6a7aa;fill-opacity:1;fill-rule:nonzero;stroke:none"
         id="path286" /><path
         d="M 9442.97,4475.79 V 3359.26 L 9879,3611.01 v 1116.52 l -436.03,-251.74"
         style="fill:#dcdcdb;fill-opacity:1;fill-rule:nonzero;stroke:none"
         id="path288" /><path
         d="m 9224.95,5630.78 -436.03,251.74 -436.05,-251.74 436.05,-251.75 436.03,251.75"
         style="fill:#4674b7;fill-opacity:1;fill-rule:nonzero;stroke:none"
         id="path290" /><path
         d="M 8352.87,5630.78 V 3211.25 l 436.05,-251.75 v 2419.53 l -436.05,251.75"
         style="fill:#a6a7aa;fill-opacity:1;fill-rule:nonzero;stroke:none"
         id="path292" /><path
         d="M 8788.92,5379.03 V 2959.5 l 436.03,251.75 v 2419.53 l -436.03,-251.75"
         style="fill:#dcdcdb;fill-opacity:1;fill-rule:nonzero;stroke:none"
         id="path294" /><path
         d="m 8570.9,3928.02 -436.05,251.74 -436.03,-251.74 436.03,-251.76 436.05,251.76"
         style="fill:#b6986d;fill-opacity:1;fill-rule:nonzero;stroke:none"
         id="path296" /><path
         d="M 7698.82,3928.02 V 2811.5 l 436.03,-251.76 v 1116.52 l -436.03,251.76"
         style="fill:#a6a7aa;fill-opacity:1;fill-rule:nonzero;stroke:none"
         id="path298" /><path
         d="M 8134.85,3676.26 V 2559.74 l 436.05,251.76 v 1116.52 l -436.05,-251.76"
         style="fill:#dcdcdb;fill-opacity:1;fill-rule:nonzero;stroke:none"
         id="path300" /><path
         d="m 9717.94,8253.55 -261.73,-204.49 192.97,-69.36 -690.27,-1543.39 -981.3,352.79 -889.78,-1989.48 200.52,-72.09 802.78,1794.96 956.78,-343.96 24.53,-8.82 777.27,1737.89 193.19,-69.46 -31.6,309.95 -31.65,309.95 -261.71,-204.49"
         style="fill:#a6a7aa;fill-opacity:1;fill-rule:nonzero;stroke:none"
         id="path302" /><path
         d="m 14460.5,6144.79 h -353.4 c 1.5,-6.33 2.3,-12.93 2.3,-19.73 0,-5.63 -0.5,-11.12 -1.6,-16.44 h 351.9 c -1.2,5.3 -1.9,10.78 -1.9,16.44 0,6.85 1,13.45 2.7,19.73"
         style="fill:#595a5c;fill-opacity:1;fill-rule:nonzero;stroke:none"
         id="path304" /><path
         d="M 15042.5,6385.75 H 14845 c 1.5,-5.79 2.3,-11.82 2.3,-18.08 0,-6.25 -0.8,-12.29 -2.3,-18.08 h 197.5 c -1.5,5.79 -2.4,11.83 -2.4,18.08 0,6.26 0.9,12.29 2.4,18.08"
         style="fill:#595a5c;fill-opacity:1;fill-rule:nonzero;stroke:none"
         id="path306" /><path
         d="m 14710.3,6334.47 -145.5,-145.55 c 10.8,-5.84 19.9,-14.36 26.5,-24.63 l 143.1,143.11 c -10.2,6.81 -18.4,16.14 -24.1,27.07"
         style="fill:#595a5c;fill-opacity:1;fill-rule:nonzero;stroke:none"
         id="path308" /><path
         d="m 15312.3,6190.85 -138.3,138.24 c -6.5,-10.34 -15.5,-18.94 -26.2,-24.89 l 137.7,-137.73 c 6.7,10.22 15.9,18.63 26.8,24.38"
         style="fill:#595a5c;fill-opacity:1;fill-rule:nonzero;stroke:none"
         id="path310" /><path
         d="m 15947,5894.81 -187.2,187.14 c -6.5,-10.27 -15.3,-19.01 -25.5,-25.57 l 187.5,-187.51 c 6.1,10.64 14.7,19.55 25.2,25.94"
         style="fill:#595a5c;fill-opacity:1;fill-rule:nonzero;stroke:none"
         id="path312" /><path
         d="m 15744,6097.8 -47,46.99 h -66.5 c -1.7,-5.72 -2.7,-11.79 -2.7,-18.08 0,-6.29 1,-12.36 2.7,-18.09 h 51.5 l 36.4,-36.39 c 10.9,5.78 19.8,14.71 25.6,25.57"
         style="fill:#595a5c;fill-opacity:1;fill-rule:nonzero;stroke:none"
         id="path314" /><path
         d="m 17155.8,6144.79 h -372.3 c 1.5,-6.33 2.4,-12.93 2.4,-19.73 0,-5.63 -0.6,-11.12 -1.7,-16.44 h 370.7 c -1.2,5.3 -1.9,10.78 -1.9,16.44 0,6.85 1,13.45 2.8,19.73"
         style="fill:#595a5c;fill-opacity:1;fill-rule:nonzero;stroke:none"
         id="path316" /><path
         d="m 15608.1,6144.79 h -191.8 c 1.5,-5.79 2.4,-11.83 2.4,-18.08 0,-6.26 -0.9,-12.3 -2.4,-18.09 h 191.8 c -1.3,5.83 -2,11.88 -2,18.09 0,6.21 0.7,12.25 2,18.08"
         style="fill:#595a5c;fill-opacity:1;fill-rule:nonzero;stroke:none"
         id="path318" /><path
         d="M 16332.9,5851.04 H 16055 c 1.4,-5.79 2.3,-11.83 2.3,-18.08 0,-6.26 -0.9,-12.29 -2.3,-18.08 h 277.9 c -1.5,5.79 -2.4,11.82 -2.4,18.08 0,6.25 0.9,12.29 2.4,18.08"
         style="fill:#595a5c;fill-opacity:1;fill-rule:nonzero;stroke:none"
         id="path320" /><path
         d="m 16761.9,6108.62 c 1.4,5.25 2.3,10.74 2.3,16.44 0,6.91 -1.2,13.52 -3.3,19.73 h -76 l -40.5,-40.49 c 4.3,-11.81 12,-21.96 22,-29.19 l 33.5,33.51 h 62"
         style="fill:#595a5c;fill-opacity:1;fill-rule:nonzero;stroke:none"
         id="path322" /><path
         d="M 16627.9,6087.76 16437.1,5897 c 10.9,-5.78 20,-14.23 26.7,-24.47 l 187.1,187.06 c -9.6,7.57 -17.5,17.18 -23,28.17"
         style="fill:#595a5c;fill-opacity:1;fill-rule:nonzero;stroke:none"
         id="path324" /><path
         d="m 14026,6108.62 h 59.5 c 1.4,5.25 2.2,10.74 2.2,16.44 0,6.91 -1.1,13.52 -3.2,19.73 h -58.5 v -36.17"
         style="fill:#595a5c;fill-opacity:1;fill-rule:nonzero;stroke:none"
         id="path326" /><path
         d="m 15443.2,5683.59 -246.5,159.69 c -4.8,-11.31 -12,-21.35 -21,-29.47 l 248.4,-160.92 c 3.7,11.84 10.4,22.33 19.1,30.7"
         style="fill:#595a5c;fill-opacity:1;fill-rule:nonzero;stroke:none"
         id="path328" /><path
         d="m 13565,5938.77 -177.9,205.54 c -5.5,-11.21 -13.6,-20.82 -23.7,-27.92 l 175.6,-202.83 c 6.4,10.44 15.3,19.14 26,25.21"
         style="fill:#595a5c;fill-opacity:1;fill-rule:nonzero;stroke:none"
         id="path330" /><path
         d="m 13253.7,6200.66 h -639.9 c 1.3,-5.36 2,-10.92 2,-16.66 0,-6.77 -1,-13.29 -2.7,-19.5 h 637.1 c -0.6,3.68 -1,7.42 -1,11.26 0,8.77 1.6,17.13 4.5,24.9"
         style="fill:#595a5c;fill-opacity:1;fill-rule:nonzero;stroke:none"
         id="path332" /><path
         d="m 15037.3,5887.87 h -1365 c 0.6,-3.96 1.1,-8 1.1,-12.15 0,-8.43 -1.6,-16.49 -4.2,-24.02 H 15040 c -2.3,7.62 -3.6,15.67 -3.6,24.02 0,4.13 0.4,8.18 0.9,12.15"
         style="fill:#595a5c;fill-opacity:1;fill-rule:nonzero;stroke:none"
         id="path334" /><path
         d="m 15178,5855.37 -50.1,32.5 h -68.5 c -0.8,-3.93 -1.3,-7.99 -1.3,-12.15 0,-8.51 1.8,-16.63 4.9,-24.02 h 54.2 l 39.3,-25.49 c 9.8,7.29 17.4,17.4 21.5,29.16"
         style="fill:#595a5c;fill-opacity:1;fill-rule:nonzero;stroke:none"
         id="path336" /><path
         d="m 12477.1,6154.47 -278.4,-273.03 4.6,-4.58 -25.6,-25.58 -4.8,4.83 -281,-275.69 c 12.3,-3.54 23.3,-10.24 32,-19.21 l 575.8,564.85 c -9.7,7.37 -17.6,17.1 -22.6,28.41"
         style="fill:#595a5c;fill-opacity:1;fill-rule:nonzero;stroke:none"
         id="path338" /><path
         d="m 12203.3,5876.86 -4.6,4.58 -263.7,263.67 c -5.2,-11.19 -13.2,-20.82 -23.1,-28.02 l 261,-260.98 4.8,-4.83 25.6,25.58"
         style="fill:#595a5c;fill-opacity:1;fill-rule:nonzero;stroke:none"
         id="path340" /><path
         d="m 12319,5548.03 190.8,190.76 c -10.8,5.78 -20,14.22 -26.7,24.46 l -187,-187.06 c 9.5,-7.56 17.4,-17.17 22.9,-28.16"
         style="fill:#595a5c;fill-opacity:1;fill-rule:nonzero;stroke:none"
         id="path342" /><path
         d="m 12614.1,5784.74 h 277.9 c -1.5,5.79 -2.4,11.83 -2.4,18.09 0,6.25 0.9,12.29 2.4,18.08 h -277.9 c 1.5,-5.79 2.3,-11.83 2.3,-18.08 0,-6.26 -0.8,-12.3 -2.3,-18.09"
         style="fill:#595a5c;fill-opacity:1;fill-rule:nonzero;stroke:none"
         id="path344" /><path
         d="m 13000,5740.98 187.1,-187.15 c 6.6,10.27 15.3,19.02 25.6,25.57 l -187.5,187.52 c -6.1,-10.64 -14.8,-19.56 -25.2,-25.94"
         style="fill:#595a5c;fill-opacity:1;fill-rule:nonzero;stroke:none"
         id="path346" /><path
         d="m 14236.6,5301.32 145.6,145.55 c -10.8,5.84 -19.9,14.36 -26.5,24.63 l -143.2,-143.11 c 10.2,-6.81 18.5,-16.14 24.1,-27.07"
         style="fill:#595a5c;fill-opacity:1;fill-rule:nonzero;stroke:none"
         id="path348" /><path
         d="m 12185.1,5527.16 c -1.5,-5.24 -2.3,-10.73 -2.3,-16.43 0,-6.91 1.2,-13.53 3.3,-19.73 h 75.9 l 40.5,40.49 c -4.2,11.82 -12,21.95 -22,29.19 l -33.5,-33.52 h -61.9"
         style="fill:#595a5c;fill-opacity:1;fill-rule:nonzero;stroke:none"
         id="path350" /><path
         d="m 13338.8,5491 h 191.8 c -1.5,5.79 -2.3,11.82 -2.3,18.08 0,6.25 0.8,12.29 2.3,18.08 h -191.8 c 1.3,-5.83 2,-11.87 2,-18.08 0,-6.21 -0.7,-12.26 -2,-18.08"
         style="fill:#595a5c;fill-opacity:1;fill-rule:nonzero;stroke:none"
         id="path352" /><path
         d="m 13634.7,5444.94 138.2,-138.25 c 6.5,10.35 15.6,18.95 26.3,24.9 l -137.7,137.72 c -6.8,-10.22 -16,-18.63 -26.8,-24.37"
         style="fill:#595a5c;fill-opacity:1;fill-rule:nonzero;stroke:none"
         id="path354" /><path
         d="m 13904.5,5250.03 h 197.5 c -1.5,5.8 -2.4,11.83 -2.4,18.09 0,6.25 0.9,12.29 2.4,18.08 h -197.5 c 1.5,-5.79 2.4,-11.83 2.4,-18.08 0,-6.26 -0.9,-12.29 -2.4,-18.09"
         style="fill:#595a5c;fill-opacity:1;fill-rule:nonzero;stroke:none"
         id="path356" /><path
         d="m 14486.4,5491 h 364.7 c -1.7,6.28 -2.8,12.88 -2.8,19.73 0,5.66 0.8,11.14 2,16.43 h -363 c 1.2,-5.29 1.9,-10.77 1.9,-16.43 0,-6.85 -1,-13.45 -2.8,-19.73"
         style="fill:#595a5c;fill-opacity:1;fill-rule:nonzero;stroke:none"
         id="path358" /><path
         d="m 11801.3,5527.16 h -160.5 c 1.2,-5.29 2,-10.77 2,-16.43 0,-6.85 -1.1,-13.45 -2.8,-19.73 h 162.1 c -1.8,6.28 -2.8,12.88 -2.8,19.73 0,5.66 0.7,11.14 2,16.43"
         style="fill:#595a5c;fill-opacity:1;fill-rule:nonzero;stroke:none"
         id="path360" /><path
         d="m 11941.6,5491 h 221.8 c -1.5,6.32 -2.3,12.93 -2.3,19.73 0,5.62 0.5,11.12 1.6,16.43 h -220.2 c 1.2,-5.29 1.9,-10.77 1.9,-16.43 0,-6.85 -1,-13.45 -2.8,-19.73"
         style="fill:#595a5c;fill-opacity:1;fill-rule:nonzero;stroke:none"
         id="path362" /><path
         d="m 13203,5537.98 47,-46.98 h 66.4 c 1.8,5.72 2.8,11.79 2.8,18.08 0,6.29 -1,12.36 -2.8,18.08 h -51.5 l -36.4,36.4 c -10.8,-5.79 -19.7,-14.72 -25.5,-25.58"
         style="fill:#595a5c;fill-opacity:1;fill-rule:nonzero;stroke:none"
         id="path364" /><path
         d="m 12244.5,5572.43 c 13.4,0 25.9,-4.39 36,-11.75 10,-7.24 17.8,-17.37 22,-29.19 2.3,-6.49 3.7,-13.47 3.7,-20.76 0,-34.03 -27.7,-61.71 -61.7,-61.71 -27.1,0 -50.2,17.61 -58.4,41.98 -2.1,6.2 -3.3,12.82 -3.3,19.73 0,5.7 0.8,11.19 2.3,16.43 7.2,26.06 31,45.27 59.4,45.27 z m -81.1,-81.43 c 8.9,-36.5 41.9,-63.68 81.1,-63.68 46,0 83.4,37.42 83.4,83.41 0,13.4 -3.2,26.07 -8.9,37.3 -5.5,10.99 -13.4,20.6 -22.9,28.16 -14.2,11.22 -32.2,17.94 -51.6,17.94 -40.4,0 -74.1,-28.83 -81.8,-66.97 -1.1,-5.31 -1.6,-10.81 -1.6,-16.43 0,-6.8 0.8,-13.41 2.3,-19.73"
         style="fill:#595a5c;fill-opacity:1;fill-rule:nonzero;stroke:none"
         id="path366" /><path
         d="m 12509.8,5738.79 c 10.2,-5.42 21.8,-8.51 34.1,-8.51 33.8,0 62.1,23.16 70.2,54.46 1.5,5.79 2.3,11.83 2.3,18.09 0,6.25 -0.8,12.29 -2.3,18.08 -8.1,31.3 -36.4,54.47 -70.2,54.47 -40.1,0 -72.6,-32.48 -72.6,-72.55 0,-14.62 4.4,-28.2 11.8,-39.58 6.7,-10.24 15.9,-18.68 26.7,-24.46"
         style="fill:#b6986d;fill-opacity:1;fill-rule:nonzero;stroke:none"
         id="path368" /><path
         d="m 12892,5784.74 c 8,-31.3 36.4,-54.46 70.2,-54.46 13.9,0 26.8,3.95 37.8,10.7 10.4,6.38 19.1,15.3 25.2,25.94 6,10.59 9.5,22.83 9.5,35.91 0,40.07 -32.4,72.55 -72.5,72.55 -33.8,0 -62.2,-23.17 -70.2,-54.47 -1.5,-5.79 -2.4,-11.83 -2.4,-18.08 0,-6.26 0.9,-12.3 2.4,-18.09"
         style="fill:#a6a7aa;fill-opacity:1;fill-rule:nonzero;stroke:none"
         id="path370" /><path
         d="m 13257.4,5570.79 c 27.8,0 51.3,-18.4 59,-43.63 1.8,-5.72 2.8,-11.79 2.8,-18.08 0,-6.29 -1,-12.36 -2.8,-18.08 -7.7,-25.23 -31.2,-43.63 -59,-43.63 -34,0 -61.7,27.68 -61.7,61.71 0,10.44 2.7,20.28 7.3,28.9 5.8,10.86 14.7,19.79 25.5,25.58 8.7,4.59 18.5,7.23 28.9,7.23 z m -70.3,-16.96 c -8.3,-12.94 -13.1,-28.29 -13.1,-44.75 0,-45.99 37.5,-83.41 83.4,-83.41 39.8,0 73.2,28 81.4,65.33 1.3,5.82 2,11.87 2,18.08 0,6.21 -0.7,12.25 -2,18.08 -8.2,37.32 -41.6,65.33 -81.4,65.33 -16.4,0 -31.8,-4.82 -44.7,-13.09 -10.3,-6.55 -19,-15.3 -25.6,-25.57"
         style="fill:#595a5c;fill-opacity:1;fill-rule:nonzero;stroke:none"
         id="path372" /><path
         d="m 13530.6,5491 c 8.1,-31.31 36.4,-54.48 70.2,-54.48 12.2,0 23.8,3.06 33.9,8.42 10.8,5.74 20,14.15 26.8,24.37 7.5,11.42 11.9,25.07 11.9,39.77 0,40.07 -32.5,72.56 -72.6,72.56 -33.8,0 -62.1,-23.17 -70.2,-54.48 -1.5,-5.79 -2.3,-11.83 -2.3,-18.08 0,-6.26 0.8,-12.29 2.3,-18.08"
         style="fill:#4674b7;fill-opacity:1;fill-rule:nonzero;stroke:none"
         id="path374" /><path
         d="m 13772.9,5306.69 c -7,-11.18 -11.2,-24.38 -11.2,-38.57 0,-40.08 32.5,-72.56 72.6,-72.56 33.8,0 62.1,23.17 70.2,54.47 1.5,5.8 2.4,11.83 2.4,18.09 0,6.25 -0.9,12.29 -2.4,18.08 -8.1,31.3 -36.4,54.47 -70.2,54.47 -12.7,0 -24.7,-3.31 -35.1,-9.08 -10.7,-5.95 -19.8,-14.55 -26.3,-24.9"
         style="fill:#a6a7aa;fill-opacity:1;fill-rule:nonzero;stroke:none"
         id="path376" /><path
         d="m 14102,5250.03 c 8,-31.3 36.3,-54.47 70.2,-54.47 40,0 72.5,32.48 72.5,72.56 0,11.97 -2.9,23.24 -8.1,33.2 -5.6,10.93 -13.9,20.26 -24.1,27.07 -11.5,7.75 -25.4,12.28 -40.3,12.28 -33.9,0 -62.2,-23.17 -70.2,-54.47 -1.5,-5.79 -2.4,-11.83 -2.4,-18.08 0,-6.26 0.9,-12.29 2.4,-18.09"
         style="fill:#a6a7aa;fill-opacity:1;fill-rule:nonzero;stroke:none"
         id="path378" /><path
         d="m 14382.2,5446.87 c 10.2,-5.54 22,-8.7 34.4,-8.7 33.3,0 61.2,22.36 69.8,52.83 1.8,6.28 2.8,12.88 2.8,19.73 0,5.66 -0.7,11.14 -1.9,16.43 -7.5,32.14 -36.2,56.12 -70.7,56.12 -40,0 -72.5,-32.48 -72.5,-72.55 0,-14.47 4.3,-27.91 11.6,-39.23 6.6,-10.27 15.7,-18.79 26.5,-24.63"
         style="fill:#a6a7aa;fill-opacity:1;fill-rule:nonzero;stroke:none"
         id="path380" /><path
         d="m 11640.8,5527.16 c -7.4,32.14 -36.2,56.12 -70.6,56.12 -40.1,0 -72.5,-32.48 -72.5,-72.55 0,-40.07 32.4,-72.56 72.5,-72.56 33.2,0 61.2,22.36 69.8,52.83 1.7,6.28 2.8,12.88 2.8,19.73 0,5.66 -0.8,11.14 -2,16.43"
         style="fill:#a6a7aa;fill-opacity:1;fill-rule:nonzero;stroke:none"
         id="path382" /><path
         d="m 14851.1,5491 c 8.6,-30.47 36.6,-52.83 69.8,-52.83 40.1,0 72.6,32.49 72.6,72.56 0,40.07 -32.5,72.55 -72.6,72.55 -34.4,0 -63.2,-23.98 -70.6,-56.12 -1.2,-5.29 -2,-10.77 -2,-16.43 0,-6.85 1.1,-13.45 2.8,-19.73"
         style="fill:#b6986d;fill-opacity:1;fill-rule:nonzero;stroke:none"
         id="path384" /><path
         d="m 16702.5,6063.35 c -13.5,0 -25.9,4.4 -36.1,11.76 -10,7.23 -17.7,17.38 -22,29.19 -2.3,6.5 -3.6,13.47 -3.6,20.76 0,34.02 27.7,61.7 61.7,61.7 27.1,0 50.1,-17.6 58.4,-41.97 2.1,-6.21 3.3,-12.82 3.3,-19.73 0,-5.7 -0.9,-11.19 -2.3,-16.44 -7.2,-26.06 -31.1,-45.27 -59.4,-45.27 z m 81,81.44 c -8.9,36.49 -41.8,63.67 -81,63.67 -46,0 -83.4,-37.42 -83.4,-83.4 0,-13.4 3.2,-26.07 8.8,-37.3 5.5,-10.99 13.4,-20.6 23,-28.17 14.2,-11.21 32.1,-17.93 51.6,-17.93 40.3,0 74.1,28.82 81.7,66.96 1.1,5.32 1.7,10.81 1.7,16.44 0,6.8 -0.9,13.4 -2.4,19.73"
         style="fill:#595a5c;fill-opacity:1;fill-rule:nonzero;stroke:none"
         id="path386" /><path
         d="m 16437.1,5897 c -10.1,5.42 -21.7,8.51 -34,8.51 -33.9,0 -62.2,-23.16 -70.2,-54.47 -1.5,-5.79 -2.4,-11.83 -2.4,-18.08 0,-6.26 0.9,-12.29 2.4,-18.08 8,-31.31 36.3,-54.48 70.2,-54.48 40,0 72.5,32.49 72.5,72.56 0,14.61 -4.3,28.19 -11.8,39.57 -6.7,10.24 -15.8,18.69 -26.7,24.47"
         style="fill:#a6a7aa;fill-opacity:1;fill-rule:nonzero;stroke:none"
         id="path388" /><path
         d="m 16055,5851.04 c -8.1,31.31 -36.4,54.47 -70.2,54.47 -13.9,0 -26.8,-3.95 -37.8,-10.7 -10.5,-6.39 -19.1,-15.3 -25.2,-25.94 -6.1,-10.6 -9.6,-22.83 -9.6,-35.91 0,-40.07 32.5,-72.56 72.6,-72.56 33.8,0 62.1,23.17 70.2,54.48 1.4,5.79 2.3,11.82 2.3,18.08 0,6.25 -0.9,12.29 -2.3,18.08"
         style="fill:#4674b7;fill-opacity:1;fill-rule:nonzero;stroke:none"
         id="path390" /><path
         d="m 15689.5,6065 c -27.7,0 -51.2,18.4 -59,43.62 -1.7,5.73 -2.7,11.8 -2.7,18.09 0,6.29 1,12.36 2.7,18.08 7.8,25.22 31.3,43.62 59,43.62 34,0 61.7,-27.68 61.7,-61.7 0,-10.45 -2.6,-20.28 -7.2,-28.91 -5.8,-10.86 -14.7,-19.79 -25.6,-25.57 -8.6,-4.6 -18.4,-7.23 -28.9,-7.23 z m 70.3,16.95 c 8.3,12.95 13.1,28.29 13.1,44.76 0,45.99 -37.4,83.4 -83.4,83.4 -39.8,0 -73.1,-28 -81.4,-65.32 -1.3,-5.83 -2,-11.87 -2,-18.08 0,-6.21 0.7,-12.26 2,-18.09 8.3,-37.32 41.6,-65.32 81.4,-65.32 16.5,0 31.8,4.82 44.8,13.08 10.2,6.56 19,15.3 25.5,25.57"
         style="fill:#595a5c;fill-opacity:1;fill-rule:nonzero;stroke:none"
         id="path392" /><path
         d="m 15416.3,6144.79 c -8,31.3 -36.3,54.47 -70.2,54.47 -12.2,0 -23.7,-3.06 -33.8,-8.41 -10.9,-5.75 -20.1,-14.16 -26.8,-24.38 -7.5,-11.42 -11.9,-25.07 -11.9,-39.76 0,-40.07 32.5,-72.56 72.5,-72.56 33.9,0 62.2,23.17 70.2,54.47 1.5,5.79 2.4,11.83 2.4,18.09 0,6.25 -0.9,12.29 -2.4,18.08"
         style="fill:#a6a7aa;fill-opacity:1;fill-rule:nonzero;stroke:none"
         id="path394" /><path
         d="m 15174,6329.09 c 7.1,11.19 11.2,24.39 11.2,38.58 0,40.07 -32.5,72.55 -72.5,72.55 -33.9,0 -62.2,-23.16 -70.2,-54.47 -1.5,-5.79 -2.4,-11.82 -2.4,-18.08 0,-6.25 0.9,-12.29 2.4,-18.08 8,-31.3 36.3,-54.47 70.2,-54.47 12.7,0 24.7,3.31 35.1,9.08 10.7,5.95 19.7,14.55 26.2,24.89"
         style="fill:#a6a7aa;fill-opacity:1;fill-rule:nonzero;stroke:none"
         id="path396" /><path
         d="m 14845,6385.75 c -8.1,31.31 -36.4,54.47 -70.2,54.47 -40.1,0 -72.6,-32.48 -72.6,-72.55 0,-11.98 3,-23.25 8.1,-33.2 5.7,-10.93 13.9,-20.26 24.1,-27.07 11.5,-7.75 25.4,-12.28 40.4,-12.28 33.8,0 62.1,23.17 70.2,54.47 1.5,5.79 2.3,11.83 2.3,18.08 0,6.26 -0.8,12.29 -2.3,18.08"
         style="fill:#4674b7;fill-opacity:1;fill-rule:nonzero;stroke:none"
         id="path398" /><path
         d="m 14564.8,6188.92 c -10.3,5.54 -22,8.69 -34.5,8.69 -33.2,0 -61.2,-22.35 -69.8,-52.82 -1.7,-6.28 -2.7,-12.88 -2.7,-19.73 0,-5.66 0.7,-11.14 1.9,-16.44 7.4,-32.14 36.2,-56.12 70.6,-56.12 40.1,0 72.6,32.49 72.6,72.56 0,14.47 -4.3,27.91 -11.6,39.23 -6.6,10.27 -15.7,18.79 -26.5,24.63"
         style="fill:#a6a7aa;fill-opacity:1;fill-rule:nonzero;stroke:none"
         id="path400" /><path
         d="m 17225.5,6197.61 c -33.2,0 -61.1,-22.35 -69.7,-52.82 -1.8,-6.28 -2.8,-12.88 -2.8,-19.73 0,-5.66 0.7,-11.14 1.9,-16.44 7.5,-32.14 36.2,-56.12 70.6,-56.12 40.1,0 72.6,32.49 72.6,72.56 0,40.07 -32.5,72.55 -72.6,72.55"
         style="fill:#a6a7aa;fill-opacity:1;fill-rule:nonzero;stroke:none"
         id="path402" /><path
         d="m 14026,6063.35 c -34,0 -61.7,27.69 -61.7,61.71 0,34.02 27.7,61.7 61.7,61.7 27.2,0 50.2,-17.6 58.5,-41.97 2.1,-6.21 3.2,-12.82 3.2,-19.73 0,-5.7 -0.8,-11.19 -2.2,-16.44 -7.3,-26.06 -31.1,-45.27 -59.5,-45.27 z m 81.1,81.44 c -8.9,36.49 -41.9,63.67 -81.1,63.67 -46,0 -83.4,-37.42 -83.4,-83.4 0,-45.99 37.4,-83.4 83.4,-83.4 40.4,0 74.2,28.82 81.8,66.96 1.1,5.32 1.6,10.81 1.6,16.44 0,6.8 -0.8,13.4 -2.3,19.73"
         style="fill:#595a5c;fill-opacity:1;fill-rule:nonzero;stroke:none"
         id="path404" /><path
         d="m 11891.9,5580.42 c -6.4,1.83 -13.1,2.86 -20,2.86 -34.4,0 -63.2,-23.98 -70.6,-56.12 -1.3,-5.29 -2,-10.77 -2,-16.43 0,-6.85 1,-13.45 2.8,-19.73 8.6,-30.47 36.5,-52.83 69.8,-52.83 33.2,0 61.1,22.36 69.7,52.83 1.8,6.28 2.8,12.88 2.8,19.73 0,5.66 -0.7,11.14 -1.9,16.43 -3,13.05 -9.6,24.75 -18.6,34.05 -8.7,8.97 -19.7,15.67 -32,19.21"
         style="fill:#4674b7;fill-opacity:1;fill-rule:nonzero;stroke:none"
         id="path406" /><path
         d="m 12613.8,6200.66 c -7.5,32.03 -36.2,55.89 -70.5,55.89 -40.1,0 -72.6,-32.48 -72.6,-72.55 0,-10.53 2.3,-20.5 6.4,-29.53 5,-11.31 12.9,-21.04 22.6,-28.41 12.2,-9.13 27.2,-14.61 43.6,-14.61 33.3,0 61.3,22.46 69.8,53.05 1.7,6.21 2.7,12.73 2.7,19.5 0,5.74 -0.7,11.3 -2,16.66"
         style="fill:#a6a7aa;fill-opacity:1;fill-rule:nonzero;stroke:none"
         id="path408" /><path
         d="m 13387.1,6144.31 c 4.6,9.52 7.2,20.16 7.2,31.45 0,40.07 -32.5,72.55 -72.5,72.55 -31.4,0 -58,-19.86 -68.1,-47.65 -2.9,-7.77 -4.5,-16.13 -4.5,-24.9 0,-3.84 0.4,-7.58 1,-11.26 5.4,-34.71 35.3,-61.29 71.6,-61.29 15.5,0 29.8,4.9 41.6,13.18 10.1,7.1 18.2,16.71 23.7,27.92"
         style="fill:#a6a7aa;fill-opacity:1;fill-rule:nonzero;stroke:none"
         id="path410" /><path
         d="m 13672.3,5887.87 c -5.8,34.27 -35.6,60.4 -71.5,60.4 -13,0 -25.2,-3.48 -35.8,-9.5 -10.7,-6.07 -19.6,-14.77 -26,-25.21 -6.8,-11.03 -10.7,-23.96 -10.7,-37.84 0,-40.07 32.4,-72.56 72.5,-72.56 31.6,0 58.5,20.3 68.4,48.54 2.6,7.53 4.2,15.59 4.2,24.02 0,4.15 -0.5,8.19 -1.1,12.15"
         style="fill:#a6a7aa;fill-opacity:1;fill-rule:nonzero;stroke:none"
         id="path412" /><path
         d="m 15119.9,5814.01 c -25.6,0 -47.5,15.57 -56.9,37.69 -3.1,7.39 -4.9,15.51 -4.9,24.02 0,4.16 0.5,8.22 1.3,12.15 5.6,28.22 30.6,49.55 60.5,49.55 34,0 61.7,-27.68 61.7,-61.7 0,-7.14 -1.3,-13.97 -3.6,-20.35 -4.1,-11.76 -11.7,-21.87 -21.5,-29.16 -10.2,-7.63 -22.9,-12.2 -36.6,-12.2 z m 76.8,29.27 c 4.2,9.98 6.6,20.94 6.6,32.44 0,45.99 -37.5,83.4 -83.4,83.4 -41.9,0 -76.7,-31 -82.6,-71.25 -0.5,-3.97 -0.9,-8.02 -0.9,-12.15 0,-8.35 1.3,-16.4 3.6,-24.02 10.3,-34.31 42.2,-59.39 79.9,-59.39 21.4,0 41,8.15 55.8,21.5 9,8.12 16.2,18.16 21,29.47"
         style="fill:#595a5c;fill-opacity:1;fill-rule:nonzero;stroke:none"
         id="path414" /><path
         d="m 15493.4,5703.79 c -19.5,0 -37.1,-7.71 -50.2,-20.2 -8.7,-8.37 -15.4,-18.86 -19.1,-30.7 -2.1,-6.84 -3.3,-14.11 -3.3,-21.65 0,-40.07 32.5,-72.55 72.6,-72.55 40,0 72.5,32.48 72.5,72.55 0,40.07 -32.5,72.55 -72.5,72.55"
         style="fill:#a6a7aa;fill-opacity:1;fill-rule:nonzero;stroke:none"
         id="path416" /><path
         d="m 11935,6145.11 c 4.4,9.32 6.9,19.68 6.9,30.65 0,40.07 -32.5,72.55 -72.6,72.55 -40,0 -72.5,-32.48 -72.5,-72.55 0,-40.07 32.5,-72.55 72.5,-72.55 16,0 30.7,5.19 42.6,13.88 9.9,7.2 17.9,16.83 23.1,28.02"
         style="fill:#b6986d;fill-opacity:1;fill-rule:nonzero;stroke:none"
         id="path418" /><path
         d="m 14774.8,4426.99 c -70.3,0 -127.3,-56.98 -127.3,-127.27 0,-70.29 57,-127.28 127.3,-127.28 70.3,0 127.3,56.99 127.3,127.28 0,70.29 -57,127.27 -127.3,127.27"
         style="fill:#e6e6e6;fill-opacity:1;fill-rule:nonzero;stroke:none"
         id="path420" /><g
         id="g422"><g
           id="g424"
           clip-path="url(#clipPath428)"><path
             d="m 14774.8,4172.44 c -70.3,0 -127.3,56.99 -127.3,127.28 0,70.29 57,127.27 127.3,127.27 v -254.55 0"
             style="fill:#dadada;fill-opacity:1;fill-rule:nonzero;stroke:none"
             id="path430" /></g></g><path
         d="m 6601.72,3371.16 c -70.3,0 -127.28,-56.98 -127.28,-127.27 0,-70.3 56.98,-127.28 127.28,-127.28 70.28,0 127.27,56.98 127.27,127.28 0,70.29 -56.99,127.27 -127.27,127.27"
         style="fill:#e6e6e6;fill-opacity:1;fill-rule:nonzero;stroke:none"
         id="path432" /><g
         id="g434"><g
           id="g436"
           clip-path="url(#clipPath440)"><path
             d="m 6601.72,3116.61 c -70.3,0 -127.28,56.98 -127.28,127.28 0,70.29 56.98,127.27 127.28,127.27 v -254.55 0"
             style="fill:#dadada;fill-opacity:1;fill-rule:nonzero;stroke:none"
             id="path442" /></g></g><path
         d="m 1385.06,4603.06 c -70.29,0 -127.28,-56.98 -127.28,-127.27 0,-70.29 56.99,-127.27 127.28,-127.27 70.29,0 127.27,56.98 127.27,127.27 0,70.29 -56.98,127.27 -127.27,127.27"
         style="fill:#e6e6e6;fill-opacity:1;fill-rule:nonzero;stroke:none"
         id="path444" /><g
         id="g446"><g
           id="g448"
           clip-path="url(#clipPath452)"><path
             d="m 1385.06,4348.52 c -70.29,0 -127.28,56.98 -127.28,127.27 0,70.29 56.99,127.27 127.28,127.27 v -254.54 0"
             style="fill:#dadada;fill-opacity:1;fill-rule:nonzero;stroke:none"
             id="path454" /></g></g><path
         d="m 2576.52,10166.9 c -70.29,0 -127.27,-57 -127.27,-127.3 0,-70.27 56.98,-127.25 127.27,-127.25 70.28,0 127.28,56.98 127.28,127.25 0,70.3 -57,127.3 -127.28,127.3"
         style="fill:#e6e6e6;fill-opacity:1;fill-rule:nonzero;stroke:none"
         id="path456" /><g
         id="g458"><g
           id="g460"
           clip-path="url(#clipPath464)"><path
             d="m 2576.52,9912.35 c -70.29,0 -127.27,56.98 -127.27,127.25 0,70.3 56.98,127.3 127.27,127.3 v -254.55 0"
             style="fill:#dadada;fill-opacity:1;fill-rule:nonzero;stroke:none"
             id="path466" /></g></g><path
         d="m 17044.2,3288.4 c -181.6,0 -328.8,-147.25 -328.8,-328.88 0,-181.65 147.2,-328.89 328.8,-328.89 181.7,0 328.9,147.24 328.9,328.89 0,181.63 -147.2,328.88 -328.9,328.88"
         style="fill:#e6e6e6;fill-opacity:1;fill-rule:nonzero;stroke:none"
         id="path468" /><g
         id="g470"><g
           id="g472"
           clip-path="url(#clipPath476)"><path
             d="m 17044.2,2630.63 c -181.6,0 -328.8,147.24 -328.8,328.89 0,181.63 147.2,328.88 328.8,328.88 v -657.77 0"
             style="fill:#dadada;fill-opacity:1;fill-rule:nonzero;stroke:none"
             id="path478" /></g></g><path
         d="m 11066.8,8783.53 c -218.8,0 -396.3,-177.42 -396.3,-396.28 0,-218.87 177.5,-396.29 396.3,-396.29 218.9,0 396.3,177.42 396.3,396.29 0,218.86 -177.4,396.28 -396.3,396.28"
         style="fill:#e6e6e6;fill-opacity:1;fill-rule:nonzero;stroke:none"
         id="path480" /><g
         id="g482"><g
           id="g484"
           clip-path="url(#clipPath488)"><path
             d="m 11066.8,7990.96 c -218.8,0 -396.3,177.42 -396.3,396.29 v 0 c 0,-218.87 177.5,-396.29 396.3,-396.29 v 0"
             style="fill:#f2f2f2;fill-opacity:1;fill-rule:nonzero;stroke:none"
             id="path490" /><path
             d="m 11066.8,7990.96 c -218.8,0 -396.3,177.42 -396.3,396.29 0,218.86 177.5,396.28 396.3,396.28 v -792.57 0"
             style="fill:#dadada;fill-opacity:1;fill-rule:nonzero;stroke:none"
             id="path492" /></g></g><path
         d="m 2907.65,1247.64 c -141.44,0 -256.1,-114.64 -256.1,-256.038 0,-141.5 114.66,-256.2 256.1,-256.2 141.44,0 256.1,114.7 256.1,256.2 0,141.398 -114.66,256.038 -256.1,256.038"
         style="fill:#e6e6e6;fill-opacity:1;fill-rule:nonzero;stroke:none"
         id="path494" /><g
         id="g496"><g
           id="g498"
           clip-path="url(#clipPath502)"><path
             d="m 2907.65,735.402 c -141.44,0 -256.1,114.7 -256.1,256.2 0,141.398 114.66,256.038 256.1,256.038 v -512.238 0"
             style="fill:#dadada;fill-opacity:1;fill-rule:nonzero;stroke:none"
             id="path504" /></g></g></g></g></svg>
