<svg width="1882" height="1489" viewBox="0 0 1882 1489" fill="none" xmlns="http://www.w3.org/2000/svg">
<g clip-path="url(#clip0)">
<path d="M1487.67 84.5869H1062.61V482.805H1487.67V84.5869Z" fill="#112B46"/>
<g style="mix-blend-mode:screen">
<g style="mix-blend-mode:screen">
<path d="M1487.67 84.5869H1062.61V126.705H1487.67V84.5869Z" fill="#1D262D"/>
</g>
</g>
<path d="M1154.68 106.149C1154.68 107.68 1155.13 109.176 1155.98 110.45C1156.83 111.723 1158.03 112.715 1159.44 113.301C1160.85 113.887 1162.4 114.04 1163.9 113.741C1165.4 113.443 1166.77 112.705 1167.85 111.623C1168.93 110.54 1169.66 109.161 1169.96 107.659C1170.26 106.157 1170.1 104.601 1169.52 103.186C1168.94 101.772 1167.95 100.563 1166.68 99.712C1165.41 98.8614 1163.92 98.4074 1162.39 98.4074C1161.38 98.4015 1160.37 98.5978 1159.44 98.9848C1158.5 99.3718 1157.65 99.9418 1156.93 100.662C1156.21 101.382 1155.64 102.238 1155.26 103.179C1154.87 104.121 1154.68 105.13 1154.68 106.149V106.149Z" fill="#606BF1"/>
<path d="M1122.39 106.149C1122.39 107.68 1122.85 109.176 1123.69 110.45C1124.54 111.723 1125.75 112.715 1127.16 113.301C1128.56 113.887 1130.12 114.04 1131.61 113.741C1133.11 113.443 1134.48 112.705 1135.56 111.623C1136.64 110.54 1137.37 109.161 1137.67 107.659C1137.97 106.157 1137.82 104.601 1137.23 103.186C1136.65 101.772 1135.66 100.563 1134.39 99.712C1133.12 98.8614 1131.63 98.4074 1130.11 98.4074C1129.09 98.4015 1128.09 98.5978 1127.15 98.9848C1126.21 99.3718 1125.36 99.9418 1124.64 100.662C1123.92 101.382 1123.36 102.238 1122.97 103.179C1122.58 104.121 1122.39 105.13 1122.39 106.149Z" fill="#FBD15B"/>
<path d="M1092.59 106.937C1092.58 108.472 1093.03 109.974 1093.87 111.254C1094.72 112.534 1095.92 113.533 1097.33 114.124C1098.74 114.716 1100.3 114.873 1101.8 114.575C1103.3 114.278 1104.68 113.54 1105.76 112.455C1106.84 111.369 1107.57 109.986 1107.87 108.48C1108.17 106.974 1108.01 105.414 1107.42 103.998C1106.83 102.582 1105.84 101.373 1104.56 100.526C1103.29 99.6785 1101.79 99.2307 1100.26 99.2394C1098.23 99.2394 1096.28 100.05 1094.84 101.494C1093.4 102.938 1092.59 104.895 1092.59 106.937Z" fill="#FF8578"/>
<path d="M1351.89 170.966H1412.11V165.892H1351.89V170.966Z" fill="#FF8578"/>
<path d="M1281.22 170.966H1341.44V165.892H1281.22V170.966Z" fill="#FBD15B"/>
<path d="M1300.13 198.3H1393.5V193.226H1300.13V198.3Z" fill="#606BF1"/>
<path d="M1237.25 198.3H1284.7V193.226H1237.25V198.3Z" fill="#FF8578"/>
<path d="M1320.09 225.636H1361.09V220.562H1320.09V225.636Z" fill="#FBD15B"/>
<path d="M1160.39 225.636L1296.42 225.636V220.562L1160.39 220.562V225.636Z" fill="#FBD15B"/>
<path d="M1173.81 253.061L1329.28 253.061V247.987L1173.81 247.987V253.061Z" fill="#606BF1"/>
<path d="M1320.3 280.395H1368.15V275.321H1320.3V280.395Z" fill="#FF8578"/>
<path d="M1251.98 280.395H1299.82V275.321H1251.98V280.395Z" fill="#606BF1"/>
<path d="M1342.53 422.362H1412.11V417.289H1342.53V422.362Z" fill="#FF8578"/>
<path d="M1248.58 422.362H1318.17V417.289H1248.58V422.362Z" fill="#FBD15B"/>
<path d="M1157.12 422.362H1226.71V417.289H1157.12V422.362Z" fill="#FF8578"/>
<path d="M1257.47 394.981H1393.5V389.908H1257.47V394.981Z" fill="#606BF1"/>
<path d="M1100.22 394.981H1236.25V389.908H1100.22V394.981Z" fill="#FF8578"/>
<path d="M1226.1 367.647H1361.09V362.574H1226.1V367.647Z" fill="#FF8578"/>
<path d="M1176.77 367.647H1214.33V362.574H1176.77V367.647Z" fill="#FBD15B"/>
<path d="M1319.13 340.226H1369.93V335.152H1319.13V340.226Z" fill="#FBD15B"/>
<path d="M1241.35 340.226H1292.15V335.152H1241.35V340.226Z" fill="#606BF1"/>
<path d="M1157.82 340.226H1208.63V335.152H1157.82V340.226Z" fill="#FF8578"/>
<path d="M1239.78 312.89H1311.02V307.816H1239.78V312.89Z" fill="#FBD15B"/>
<path d="M1337.91 312.89H1409.15V307.816H1337.91V312.89Z" fill="#606BF1"/>
<path d="M1451.54 160.994H1445.05V167.511H1451.54V160.994Z" fill="#F9FBFC"/>
<path d="M1445.05 386.28H1451.54V399.4H1445.05V386.28ZM1445.05 353.127H1451.54V366.248H1445.05V353.127ZM1445.05 319.975H1451.54V333.096H1445.05V319.975ZM1445.05 286.823H1451.54V299.944H1445.05V286.823ZM1445.05 253.671H1451.54V266.792H1445.05V253.671ZM1445.05 220.519H1451.54V233.64H1445.05V220.519ZM1445.05 187.367H1451.54V200.488H1445.05V187.367Z" fill="#F9FBFC"/>
<path d="M1451.54 419.432H1445.05V425.948H1451.54V419.432Z" fill="#F9FBFC"/>
<path d="M621.174 216.582L971.195 216.582V0.000228882L621.174 0.000228882V216.582Z" fill="#FF8578"/>
<path d="M840.697 74.7451L890.631 97.2693V112.752L840.697 135.145L835.25 122.461L876.862 104.967L835.25 87.1662L840.697 74.7451Z" fill="#F9FBFC"/>
<path d="M788.147 42.5576L818.649 158.983L804.269 162.351L773.855 45.8378L788.147 42.5576Z" fill="#F9FBFC"/>
<path d="M751.545 74.7451L756.992 87.1225L715.467 104.967L756.992 122.461L751.545 135.101L701.523 112.752V97.2693L751.545 74.7451Z" fill="#F9FBFC"/>
<path d="M433.812 562.099H633.158V419.519H433.812V562.099Z" fill="#606BF1"/>
<path d="M549.76 440.904C565.969 440.904 570.544 446.021 570.544 456.956V477.293C570.544 483.11 572.069 485.472 577.385 485.472V496.187C572.069 496.187 570.544 498.461 570.544 504.278V524.834C570.544 535.637 565.969 540.842 549.76 540.842V531.438C556.078 531.438 558.474 529.733 558.474 524.922V503.447C558.474 495.181 561.916 492.644 567.712 491.113C561.916 489.452 558.474 486.74 558.474 478.517V457.087C558.474 452.276 556.339 450.526 549.76 450.526V440.904Z" fill="#F1F2F2"/>
<path d="M517.21 440.904V450.483C510.805 450.483 508.496 452.232 508.496 457.043V478.474C508.496 486.871 505.01 489.408 499.215 491.07C500.643 491.24 502.022 491.699 503.269 492.417C504.517 493.136 505.606 494.1 506.473 495.252C507.34 496.404 507.966 497.72 508.313 499.121C508.661 500.521 508.723 501.978 508.496 503.404V524.834C508.496 529.645 510.718 531.351 517.21 531.351V540.754C501.001 540.754 496.426 535.55 496.426 524.747V504.278C496.426 498.461 494.901 496.187 489.498 496.187V485.472C494.901 485.472 496.426 483.11 496.426 477.293V456.956C496.426 446.109 501.088 440.904 517.21 440.904Z" fill="#F1F2F2"/>
<path d="M1399.35 181.199L1623.01 181.199V31.0528L1399.35 31.0528V181.199Z" fill="#FBD15B"/>
<path d="M1494.25 71.0271C1488.27 77.0624 1484.54 84.9846 1483.71 93.4553C1482.88 101.926 1484.98 110.426 1489.67 117.519L1466.18 141.049C1465.71 141.532 1465.44 142.184 1465.44 142.864C1465.44 143.544 1465.71 144.196 1466.18 144.679L1472.76 151.283C1473 151.524 1473.27 151.715 1473.58 151.846C1473.89 151.977 1474.22 152.044 1474.55 152.044C1474.88 152.044 1475.21 151.977 1475.52 151.846C1475.83 151.715 1476.11 151.524 1476.34 151.283L1499.82 127.709C1505.61 131.548 1512.36 133.661 1519.3 133.804C1526.23 133.947 1533.07 132.114 1539 128.518C1544.94 124.921 1549.74 119.708 1552.85 113.484C1555.96 107.259 1557.25 100.278 1556.56 93.3497C1555.88 86.4215 1553.25 79.8301 1548.98 74.3399C1544.72 68.8498 1538.99 64.6858 1532.46 62.3308C1525.93 59.9758 1518.87 59.5264 1512.1 61.0347C1505.33 62.5429 1499.12 65.947 1494.2 70.8522L1494.25 71.0271ZM1501.87 78.7247C1505.51 75.0206 1510.17 72.4875 1515.25 71.4473C1520.33 70.407 1525.61 70.9067 1530.4 72.8828C1535.2 74.859 1539.3 78.2222 1542.19 82.545C1545.08 86.8678 1546.62 91.9549 1546.62 97.1595C1546.62 102.364 1545.08 107.451 1542.19 111.774C1539.3 116.097 1535.2 119.46 1530.4 121.436C1525.61 123.412 1520.33 123.912 1515.25 122.872C1510.17 121.832 1505.51 119.298 1501.87 115.594C1497.04 110.683 1494.33 104.06 1494.33 97.1595C1494.33 90.2588 1497.04 83.6358 1501.87 78.7247V78.7247Z" fill="#F9FBFC"/>
<path d="M748.715 494.877C749.238 499.819 755.992 551.734 809.02 551.734C864.706 551.734 855.381 496.407 855.381 496.407V496.057C849.653 494.852 843.769 494.571 837.952 495.227V468.985L774.728 433.515H772.419V494.745C764.534 493.974 756.591 494.018 748.715 494.877V494.877Z" fill="url(#paint0_radial)"/>
<path d="M779.434 316.388C769.911 326.152 763.326 338.417 760.437 351.77C754.38 378.624 760.088 407.097 767.844 432.989C768.986 437.485 770.871 441.758 773.421 445.628C775.45 448.225 777.775 450.574 780.349 452.626L814.031 482.148C821.657 488.84 868.454 494.394 877.386 488.009C911.853 463.298 918.476 391.789 911.548 355.094C900.131 294.389 822.397 272.652 779.434 316.388Z" fill="url(#paint1_radial)"/>
<path d="M798.78 394.108C798.3 388.247 792.331 381.862 786.318 385.667C780.304 389.472 781.568 399.969 784.139 405.654C786.143 410.028 792.854 415.058 797.516 410.859C801.35 407.404 795.381 403.293 795.163 400.1C794.945 396.907 800.74 395.158 798.387 392.096" fill="#F7B094"/>
<path d="M797.69 421.138C793.572 421.795 789.354 420.982 785.772 418.841C782.189 416.699 779.468 413.364 778.082 409.416C776.395 403.309 775.588 396.99 775.686 390.653C773.553 397.345 773.016 404.446 774.117 411.384C775.773 424.155 780.217 436.314 790.239 436.489C800.261 436.664 797.69 421.138 797.69 421.138Z" fill="#F7B094"/>
<path d="M805.36 412.041L806.057 412.259C809.979 412.784 811.504 407.886 812.07 405.13C813.078 398.224 813.544 391.248 813.465 384.268C813.339 382.381 813.545 380.486 814.075 378.67C816.297 373.684 822.092 370.404 823.878 365.243C825.926 359.207 820.088 353.172 822.397 346.567C825.97 336.464 838.868 334.146 848.236 334.278C862.192 334.921 876.084 336.572 889.804 339.22C904.401 341.494 923.094 343.593 935.991 334.365C951.503 323.169 957.996 294.04 946.405 278.077C942.885 273.839 938.482 270.428 933.505 268.086C928.529 265.743 923.1 264.525 917.604 264.518C906.493 264.256 897.081 270.904 886.885 274.228C878.78 276.896 870.894 269.111 863.312 267.58C853.769 265.655 849.717 276.327 841.264 276.327C832.811 276.327 825.011 270.16 817.037 268.717C801.133 265.787 802.048 281.838 791.373 287.305C784.75 290.716 776.166 288.661 769.587 292.116C764.489 294.74 763.791 299.376 762.702 304.581C762.111 309.317 761.268 314.018 760.175 318.664C758.379 322.217 755.924 325.394 752.942 328.023C750.289 331.378 748.293 335.207 747.059 339.307C744.12 348.565 743.111 358.332 744.097 367.998C746.124 384.153 750.15 399.991 756.079 415.146C759.565 425.03 760.829 435.265 766.188 444.58C767.626 447.117 774.031 454.421 776.384 448.954C776.806 447.748 776.926 446.456 776.733 445.193C776.035 435.046 766.624 369.573 791.33 377.445C793.802 378.348 796.039 379.8 797.873 381.693C799.707 383.587 801.089 385.873 801.918 388.379C803.945 394.185 804.688 400.363 804.096 406.486C804.096 407.361 804.096 408.279 804.096 409.154C804.036 409.704 804.121 410.261 804.342 410.768C804.564 411.274 804.915 411.713 805.36 412.041V412.041Z" fill="#3D3D7A"/>
<path d="M837.994 489.06C809.89 484.686 791.371 462.293 791.371 462.293C793.99 473.268 800.139 483.07 808.866 490.185C817.592 497.301 828.411 501.332 839.65 501.656L837.994 489.06Z" fill="#F7B094"/>
<path d="M751.676 1000.69H791.894V1387.88C791.894 1389.77 791.145 1391.59 789.813 1392.92C788.481 1394.26 786.675 1395.01 784.791 1395.01H758.647C756.764 1395.01 754.957 1394.26 753.625 1392.92C752.293 1391.59 751.545 1389.77 751.545 1387.88V1000.69H751.676Z" fill="#0A2033"/>
<path d="M661.219 1006.2H882.308V1012.28C882.308 1019.6 879.411 1026.61 874.255 1031.79C869.098 1036.97 862.105 1039.87 854.813 1039.87H688.757C681.465 1039.87 674.471 1036.97 669.315 1031.79C664.159 1026.61 661.262 1019.6 661.262 1012.28V1006.2H661.219Z" fill="#30475E"/>
<path d="M751.676 1349.04H791.894V1438.92C791.894 1440.81 791.145 1442.63 789.813 1443.96C788.481 1445.3 786.675 1446.05 784.791 1446.05H758.647C756.764 1446.05 754.957 1445.3 753.625 1443.96C752.293 1442.63 751.545 1440.81 751.545 1438.92V1349.04H751.676Z" fill="#0A2033"/>
<path d="M980.389 1422.26C980.389 1426.93 979.009 1431.5 976.423 1435.38C973.838 1439.27 970.163 1442.29 965.864 1444.08C961.564 1445.87 956.833 1446.34 952.269 1445.42C947.705 1444.51 943.512 1442.26 940.222 1438.96C936.931 1435.66 934.69 1431.45 933.782 1426.87C932.874 1422.29 933.34 1417.54 935.121 1413.22C936.902 1408.91 939.918 1405.22 943.787 1402.62C947.657 1400.03 952.206 1398.64 956.859 1398.64C963.1 1398.64 969.085 1401.13 973.497 1405.56C977.91 1409.99 980.389 1416 980.389 1422.26Z" fill="#0A2033"/>
<path d="M610.022 1422.26C610.022 1426.93 608.642 1431.5 606.056 1435.38C603.471 1439.27 599.796 1442.29 595.497 1444.08C591.197 1445.87 586.466 1446.34 581.902 1445.42C577.338 1444.51 573.145 1442.26 569.854 1438.96C566.564 1435.66 564.323 1431.45 563.415 1426.87C562.507 1422.29 562.973 1417.54 564.754 1413.22C566.535 1408.91 569.551 1405.22 573.42 1402.62C577.289 1400.03 581.839 1398.64 586.492 1398.64C592.733 1398.64 598.717 1401.13 603.13 1405.56C607.543 1409.99 610.022 1416 610.022 1422.26Z" fill="#0A2033"/>
<path d="M812.199 1319H731.328V1389.94H812.199V1319Z" fill="#30475E"/>
<path d="M588.235 1373.32H955.38C962.025 1373.32 968.398 1375.97 973.096 1380.69C977.795 1385.4 980.434 1391.8 980.434 1398.47V1406.69H563.137V1398.47C563.137 1395.16 563.786 1391.89 565.048 1388.83C566.31 1385.78 568.159 1383.01 570.49 1380.67C572.822 1378.33 575.589 1376.48 578.633 1375.22C581.678 1373.96 584.941 1373.31 588.235 1373.32V1373.32Z" fill="#FBD15B"/>
<path d="M771.807 1312.66H785.75V1047.83H771.807V1312.66Z" fill="#30475E"/>
<path d="M613.811 720.031C616.101 719.946 618.382 720.345 620.509 721.201C622.636 722.057 624.56 723.351 626.157 724.999C627.754 726.648 628.989 728.615 629.782 730.772C630.575 732.93 630.909 735.23 630.761 737.525C628.016 785.635 638.168 902.848 682.744 943.085C737.297 991.982 891.893 985.334 891.893 985.334C891.893 985.334 917.427 1016.78 866.36 1023.78C815.292 1030.78 671.458 1026.1 636.643 993.469C602.962 961.936 582.962 879.23 598.038 735.426C598.426 731.438 600.244 727.728 603.153 724.984C606.063 722.241 609.866 720.652 613.855 720.512L613.811 720.031Z" fill="#FBD15B"/>
<path d="M903.441 1312.66L885.053 1354.73L941.349 1379.53L959.824 1337.32L903.441 1312.66Z" fill="url(#paint2_radial)"/>
<path d="M637.818 845.071C641.304 852.069 891.543 845.071 915.203 847.389C915.203 847.389 1068.36 920.779 1090.32 989.444C1092.69 998.23 1093.43 1007.38 1092.5 1016.43C1086.36 1113.13 976.641 1344.71 976.641 1344.71L959.822 1337.32L903.439 1312.66L895.421 1309.16C895.421 1309.16 982.567 1048.84 965.138 1034.89C947.709 1020.93 750.498 985.946 681.914 967.358C613.331 948.77 637.818 845.071 637.818 845.071Z" fill="#56548C"/>
<path d="M1118.12 1323.46L1113.72 1386.66H1175.2L1179.6 1323.33L1118.12 1323.46Z" fill="url(#paint3_radial)"/>
<path d="M916.428 845.246L918.693 846.208C918.693 846.208 1175.08 882.334 1216.86 954.543C1244.01 1001.47 1191.46 1344.58 1191.46 1344.58L1100.74 1344.8C1100.74 1344.8 1114.29 1058.99 1109.76 1043.02C1104.71 1024.83 1095.99 1018.27 1092.33 1016.39C1093.26 1007.33 1092.52 998.186 1090.15 989.401C1068.37 920.735 915.033 847.345 915.033 847.345C915.693 846.798 916.178 846.068 916.428 845.246Z" fill="#3D3D7A"/>
<path d="M638.997 924.06C640.827 927.909 680.652 899.305 751.676 873.107C833.593 842.929 909.366 852.158 915.162 847.39C915.781 846.814 916.22 846.069 916.425 845.247C918.299 840.043 919.475 827.14 919.955 809.165C919.955 806.234 919.954 803.085 920.172 799.893L917.514 800.111L914.595 784.497L700.391 702.886C693.861 672.156 689.046 641.084 685.968 609.815L668.8 607.453C657.297 694.663 616.644 877.481 638.997 924.06Z" fill="#FF8578"/>
<path d="M691.152 714.082C696.86 741.592 711.588 796.393 740.564 803.741C778.385 813.363 851.457 812.882 919.953 809.164C919.953 806.234 919.953 803.085 920.171 799.892L917.513 800.111L914.594 784.497L700.389 702.885C693.86 672.155 689.045 641.083 685.967 609.814C685.967 609.814 685.967 610.077 685.967 610.602C685.487 617.774 682.568 673.538 691.152 714.082Z" fill="#F4675D"/>
<path d="M905.881 538.744C909.672 545.742 915.205 620.487 918.168 694.708L961.959 653.683C943.397 617.557 905.881 538.744 905.881 538.744Z" fill="#F4675D"/>
<path d="M932.111 748.94C969.06 755.37 1003.05 760.88 1003.05 760.88V762.717C1044.18 729.74 1106.75 636.276 1106.75 636.276C1106.75 636.276 1088.01 613.708 1083.35 607.804C1082.65 606.885 980.607 677.388 975.378 676.776C974.071 676.776 968.842 667.373 961.871 653.683L918.08 694.708C918.777 712.202 919.344 730.003 919.692 746.71C923.745 747.453 928.102 748.153 932.111 748.94Z" fill="#F7B094"/>
<path d="M1003.05 761.012L1003.97 791.627H1115.47C1115.47 791.627 1104.4 747.891 1074.25 747.891C1044.1 747.891 1032.51 763.898 1032.51 763.898L1003.05 761.012Z" fill="url(#paint4_radial)"/>
<path d="M1084.27 607.103L1083.44 607.803C1088.1 613.708 1106.84 636.275 1106.84 636.275L1118.47 628.053C1122.75 630.331 1127.53 631.493 1132.37 631.431C1137.22 631.37 1141.97 630.088 1146.19 627.703C1161.7 619.262 1152.11 599.056 1151.28 596.65C1154.29 597.525 1173.07 612.614 1175.82 610.996C1178.56 609.378 1180.91 604.086 1160.09 583.486C1139.26 562.886 1111.11 589.347 1110.24 589.347L1084.27 607.103Z" fill="#F7B094"/>
<path d="M1143.75 624.205C1143.75 624.205 1148.1 632.646 1140.26 636.276C1130.68 640.13 1120.43 642.061 1110.11 641.962C1103.44 641.306 1098.12 631.946 1098.12 631.946L1118.34 612.921H1134.46L1143.75 624.205Z" fill="#F7B094"/>
<path d="M1144.97 628.316C1143.75 624.205 1132.29 626.391 1125.18 626.566C1119.96 626.566 1117.08 625.342 1115.47 621.318C1113.86 617.294 1121.44 610.952 1122.92 612.92C1124.4 614.889 1120.22 617.775 1120.09 620.4C1119.96 623.024 1127.54 623.942 1133.42 623.942C1138.76 624.152 1144.08 624.663 1149.37 625.473L1144.97 628.316Z" fill="#E8987C"/>
<path d="M711.285 742.599L820.217 703.805C828.147 718.675 836.644 730.046 845.054 732.102C857.777 735.47 888.626 741.243 919.607 746.71C923.702 747.453 927.842 748.153 931.938 748.941C968.887 755.37 1002.87 760.88 1002.87 760.88V762.717V763.898L1003.7 791.496V798.494C975.782 797.445 947.825 797.912 919.955 799.893C854.596 804.573 770.283 807.372 742.352 794.164C729.281 787.953 718.823 767.528 710.588 742.38L711.285 742.599Z" fill="url(#paint5_radial)"/>
<path d="M820.392 703.805L711.285 742.599L716.209 757.206L824.182 710.715L820.392 703.805Z" fill="#F7B094"/>
<path d="M820.39 703.804C828.32 718.675 836.817 730.046 845.226 732.102C857.95 735.469 888.799 741.243 919.78 746.71C919.431 730.002 918.865 712.377 918.167 694.707C915.204 620.356 909.671 545.742 905.88 538.744C899.605 527.066 882.481 501.699 855.466 495.926V496.276C855.466 496.276 864.791 551.602 809.104 551.602C756.076 551.602 749.322 499.819 748.799 494.745C721.523 497.807 679.693 511.496 673.898 566.56C672.721 577.45 671.065 591.446 668.887 607.322L686.098 609.684C686.098 609.684 693.07 687.228 710.935 742.249H711.37L820.39 703.804Z" fill="#FF8578"/>
<g style="mix-blend-mode:screen">
<path d="M821.48 693.702L777.951 587.86L810.021 697.988L821.48 693.702Z" fill="#6D4B35"/>
</g>
<path d="M748.714 494.877H772.461C772.461 494.877 806.273 532.096 827.973 532.096C849.672 532.096 837.994 495.096 837.994 495.096H848.583C863.283 495.097 877.469 500.527 888.438 510.351C899.406 520.175 906.39 533.706 908.059 548.366C908.452 551.865 908.844 555.145 909.149 558.12C911.458 580.644 820.565 597.045 820.565 597.045L773.724 594.421L745.315 538.744L739.65 515.958L748.714 494.877Z" fill="#FF8578"/>
<path d="M1035.21 1427.94C1033.07 1439.32 1025.23 1447.41 1013.86 1445.44L862.745 1417.05C861.837 1416.89 860.972 1416.54 860.198 1416.04C859.424 1415.53 858.757 1414.88 858.235 1414.11C857.713 1413.35 857.346 1412.49 857.155 1411.58C856.965 1410.68 856.954 1409.74 857.124 1408.83L859.651 1395.36C859.651 1395.36 1018.65 1423.31 1035.38 1427.94H1035.21Z" fill="#F1F2F2"/>
<path d="M990.195 1389.72L985.533 1385.61L976.818 1377.69L972.461 1373.67L964.792 1366.76L960.13 1362.38C957.559 1360.02 955.424 1358.01 953.943 1356.83C953.331 1356.32 952.56 1356.04 951.764 1356.04C950.968 1356.04 950.197 1356.32 949.585 1356.83C943.354 1362.08 923.442 1374.11 886.884 1351.49C886.484 1351.23 886.033 1351.05 885.562 1350.98C885.09 1350.9 884.607 1350.92 884.143 1351.04C883.68 1351.16 883.247 1351.37 882.871 1351.67C882.495 1351.97 882.185 1352.34 881.96 1352.76L860.174 1395.23C860.174 1395.23 1019.17 1423.18 1035.9 1427.81C1029.76 1424.4 1009.5 1406.78 990.195 1389.72Z" fill="#3D3D7A"/>
<path d="M1273.33 1426.46C1273.03 1438.05 1266.58 1447.28 1255.03 1446.97L1101.26 1443.3C1099.4 1443.25 1097.63 1442.47 1096.34 1441.11C1095.05 1439.76 1094.34 1437.95 1094.38 1436.08L1094.73 1422.39C1094.73 1422.39 1256.16 1424.53 1273.38 1426.46H1273.33Z" fill="#F1F2F2"/>
<path d="M1222.83 1395.93L1217.6 1392.61L1207.54 1386.18L1202.61 1382.94L1193.9 1377.39L1188.62 1373.93L1181.65 1369.56C1180.97 1369.13 1180.15 1368.96 1179.35 1369.08C1178.56 1369.2 1177.83 1369.6 1177.3 1370.21C1171.98 1376.38 1154.03 1391.42 1114.55 1374.94C1114.11 1374.75 1113.63 1374.65 1113.15 1374.65C1112.67 1374.65 1112.2 1374.75 1111.76 1374.95C1111.32 1375.14 1110.92 1375.42 1110.59 1375.77C1110.26 1376.12 1110.01 1376.54 1109.84 1376.99L1094.86 1422.43C1094.86 1422.43 1256.29 1424.58 1273.5 1426.5C1267.4 1423.83 1244.57 1409.66 1222.83 1395.93Z" fill="#3D3D7A"/>
<path d="M1382.7 798.493L1464.83 578.675H1231.02L1148.93 798.493H1382.7Z" fill="#ABB5BA"/>
<path d="M1134.46 798.493H1148.93L1231.02 578.675L1217.91 579.243L1141.96 778.243L1134.46 798.493Z" fill="#8495A0"/>
<path d="M1139 798.493H984.75L985.142 784.629H1142.4" fill="#8495A0"/>
<path d="M518.082 840.437H480.871V1453.75H518.082V840.437Z" fill="#8495A0"/>
<path d="M719.955 840.437H682.744V1453.75H719.955V840.437Z" fill="#ABB5BA"/>
<path d="M1366.75 840.437H1329.54V1453.75H1366.75V840.437Z" fill="#8495A0"/>
<path d="M1568.62 840.437H1531.41V1453.75H1568.62V840.437Z" fill="#ABB5BA"/>
<path d="M443.618 842.755L1604.23 842.755C1614.21 842.755 1622.31 834.629 1622.31 824.604V816.644C1622.31 806.62 1614.21 798.494 1604.23 798.494L443.618 798.494C433.631 798.494 425.536 806.62 425.536 816.644V824.604C425.536 834.629 433.631 842.755 443.618 842.755Z" fill="#141B56"/>
<path d="M1425.8 601.768L1421.79 612.483H1375.21L1379.22 601.768H1425.8Z" fill="#8495A0"/>
<path d="M961.959 653.683L965.314 660.199L918.168 709.053V694.707L961.959 653.683Z" fill="#E8987C"/>
<path d="M0.00012207 1489L1882 1489V1445.88L0.00012207 1445.88V1489Z" fill="#A5B7C6"/>
<path d="M298.388 1125.95C305.839 1162.38 303.617 1224.4 351.59 1234.19C364.662 1236.86 376.993 1227.85 384.488 1217.57C394.335 1204.06 396.514 1175.54 396.514 1159.01C396.514 1145.89 392.157 1131.68 390.588 1118.6C389.063 1104.52 387.799 1090.39 386.231 1076.31C380.261 1025.7 353.856 983.148 309.368 957.825C305.882 974.489 297.996 988.441 291.068 1004.58C287.832 1011.93 285.123 1019.5 282.963 1027.23C279.303 1040.75 283.747 1054.44 287.015 1067.43C291.634 1086.58 294.379 1106.53 298.388 1125.95Z" fill="url(#paint6_linear)"/>
<path d="M450.239 1115.54C441.524 1151.71 413.594 1206.99 452.984 1236.21C463.572 1244.08 478.648 1241.23 489.803 1235.07C504.4 1227.02 518.517 1202.13 525.228 1187.26C530.544 1175.46 532.635 1160.54 536.818 1147.9C541.175 1134.47 546.186 1121.13 550.631 1107.71C566.622 1059.16 560.565 1009.39 530.718 967.489C520.565 981.135 507.493 990.582 494.465 1002.13C488.436 1007.41 482.8 1013.12 477.602 1019.23C468.583 1029.94 466.84 1044.25 464.531 1057.37C460.696 1076.96 454.77 1096.25 450.239 1115.54Z" fill="url(#paint7_linear)"/>
<path d="M367.061 1087.46C365.057 1133.42 343.619 1207.16 398.216 1233.58C412.943 1240.67 430.634 1233.58 442.747 1223.61C458.608 1210.49 470.067 1176.9 474.773 1157.26C478.52 1141.69 477.605 1123.06 479.871 1106.96C482.268 1089.47 485.056 1072.24 487.366 1054.83C495.601 992.113 476.734 933.025 430.721 889.026C421.571 907.964 407.845 922.485 394.643 939.585C388.539 947.387 383.019 955.632 378.129 964.253C369.414 979.385 370.808 997.186 370.808 1013.72C370.895 1038.21 368.15 1063.01 367.061 1087.46Z" fill="url(#paint8_linear)"/>
<path d="M336.949 1254.71L338.954 1292.1L342.134 1350.27L347.276 1445.88H476.252L481.437 1350.27L484.574 1292.1L486.622 1254.71H336.949Z" fill="#95A8B5"/>
<path d="M338.953 1292.1L339.389 1299.58L339.781 1307.36L342.134 1350.27H481.436L483.746 1307.36L484.182 1299.58L484.574 1292.1H338.953Z" fill="#A5B7C6"/>
<path d="M339.391 1299.58L339.783 1307.36H483.748L484.183 1299.58H339.391Z" fill="#95A8B5"/>
</g>
<defs>
<radialGradient id="paint0_radial" cx="0" cy="0" r="1" gradientUnits="userSpaceOnUse" gradientTransform="translate(802.353 492.471) rotate(180) scale(56.3398 56.551)">
<stop stop-color="#FFC8AF"/>
<stop offset="1" stop-color="#FFBB9C"/>
</radialGradient>
<radialGradient id="paint1_radial" cx="0" cy="0" r="1" gradientUnits="userSpaceOnUse" gradientTransform="translate(-40740.8 9445.34) rotate(-167.861) scale(3189.1 4032.51)">
<stop stop-color="#FFC8AF"/>
<stop offset="1" stop-color="#FFBB9C"/>
</radialGradient>
<radialGradient id="paint2_radial" cx="0" cy="0" r="1" gradientUnits="userSpaceOnUse" gradientTransform="translate(17351.1 21893.9) scale(607.889 543.671)">
<stop stop-color="#FFC8AF"/>
<stop offset="1" stop-color="#FFBB9C"/>
</radialGradient>
<radialGradient id="paint3_radial" cx="0" cy="0" r="1" gradientUnits="userSpaceOnUse" gradientTransform="translate(12231.3 20943.5) scale(487.527 468.639)">
<stop stop-color="#FFC8AF"/>
<stop offset="1" stop-color="#FFBB9C"/>
</radialGradient>
<radialGradient id="paint4_radial" cx="0" cy="0" r="1" gradientUnits="userSpaceOnUse" gradientTransform="translate(25040.2 8223.31) scale(4658.6 1812.44)">
<stop stop-color="#FFC8AF"/>
<stop offset="1" stop-color="#FFBB9C"/>
</radialGradient>
<radialGradient id="paint5_radial" cx="0" cy="0" r="1" gradientUnits="userSpaceOnUse" gradientTransform="translate(63384.3 17792) scale(12146.6 4143.08)">
<stop stop-color="#FFC8AF"/>
<stop offset="1" stop-color="#FFBB9C"/>
</radialGradient>
<linearGradient id="paint6_linear" x1="345.861" y1="960.609" x2="345.568" y2="1236.49" gradientUnits="userSpaceOnUse">
<stop stop-color="#606BF1"/>
<stop offset="1" stop-color="#58479F"/>
</linearGradient>
<linearGradient id="paint7_linear" x1="-7729.37" y1="-72623.7" x2="-8425.4" y2="-61496.6" gradientUnits="userSpaceOnUse">
<stop stop-color="#606BF1"/>
<stop offset="1" stop-color="#58479F"/>
</linearGradient>
<linearGradient id="paint8_linear" x1="-22709.5" y1="-63411.6" x2="-19483.6" y2="-49122" gradientUnits="userSpaceOnUse">
<stop stop-color="#606BF1"/>
<stop offset="1" stop-color="#58479F"/>
</linearGradient>
<clipPath id="clip0">
<rect width="1882" height="1489" fill="white"/>
</clipPath>
</defs>
</svg>
