<?xml version="1.0" standalone="no"?>
<!DOCTYPE svg PUBLIC "-//W3C//DTD SVG 20010904//EN"
 "http://www.w3.org/TR/2001/REC-SVG-20010904/DTD/svg10.dtd">
<svg version="1.0" xmlns="http://www.w3.org/2000/svg"
 width="700.000000pt" height="700.000000pt" viewBox="0 0 700.000000 700.000000"
 preserveAspectRatio="xMidYMid meet">
<metadata>
Created by potrace 1.11, written by Peter Selinger 2001-2013
</metadata>
<g transform="translate(0.000000,700.000000) scale(0.100000,-0.100000)"
fill="#000000" stroke="none">
<path d="M3158 5965 c-1 -1 -55 -5 -118 -8 -107 -5 -271 -30 -295 -45 -5 -4
-14 -7 -20 -7 -18 -1 -93 -25 -132 -42 -21 -9 -47 -18 -57 -20 -11 -2 -27 -10
-35 -17 -9 -8 -28 -18 -43 -21 -16 -4 -28 -11 -28 -16 0 -5 -3 -8 -7 -7 -5 1
-19 -5 -33 -13 -115 -72 -167 -107 -187 -127 -13 -13 -23 -20 -23 -18 0 3 -27
-21 -60 -53 -33 -33 -60 -57 -60 -55 0 3 -21 -21 -46 -53 -26 -32 -54 -64 -62
-70 -9 -7 -12 -13 -7 -13 5 0 -1 -10 -12 -22 -28 -32 -75 -108 -66 -108 5 0 3
-4 -3 -8 -6 -4 -21 -27 -35 -52 -26 -49 -38 -62 -51 -54 -5 3 -30 8 -56 10
-26 3 -54 8 -62 11 -24 10 -253 10 -272 1 -12 -6 -18 -5 -18 4 0 9 -3 10 -8 2
-4 -6 -32 -14 -62 -17 -30 -4 -62 -8 -70 -10 -8 -2 -32 -7 -53 -12 -20 -4 -40
-11 -42 -16 -3 -4 -12 -6 -20 -2 -8 3 -15 -1 -15 -8 0 -7 -3 -10 -6 -6 -7 6
-61 -12 -134 -46 -25 -11 -47 -21 -50 -21 -13 -2 -170 -99 -180 -111 -7 -8
-18 -15 -25 -15 -7 0 -15 -7 -19 -15 -3 -8 -11 -15 -17 -15 -6 0 -58 -47 -116
-105 -57 -58 -101 -105 -98 -105 4 0 -1 -7 -10 -16 -71 -71 -241 -405 -218
-428 4 -3 2 -6 -4 -6 -6 0 -16 -30 -23 -67 -6 -38 -14 -75 -17 -83 -11 -27
-16 -102 -16 -240 0 -150 4 -199 29 -312 3 -15 6 -31 6 -35 0 -5 4 -14 10 -20
6 -7 8 -20 4 -28 -3 -9 -2 -14 3 -11 7 5 17 -26 23 -71 1 -7 5 -13 10 -13 4 0
8 -5 8 -11 0 -15 67 -154 99 -204 86 -136 202 -265 316 -352 28 -21 51 -41 53
-45 2 -5 7 -8 12 -8 9 0 105 -61 127 -80 7 -6 13 -9 13 -6 0 2 27 -9 60 -25
33 -16 66 -29 73 -29 7 0 17 -4 23 -8 5 -5 29 -14 54 -21 25 -8 52 -16 60 -19
24 -8 33 -11 65 -16 17 -4 46 -9 65 -13 19 -3 49 -7 65 -8 17 0 35 -3 40 -6 8
-5 736 -5 757 0 9 2 -14 61 -24 61 -4 0 -8 11 -8 25 0 14 -4 25 -8 25 -7 0
-11 16 -14 58 -1 6 -5 12 -8 12 -4 0 -11 19 -15 43 -10 54 -11 61 -14 67 -9
19 -23 129 -24 188 -1 28 -5 52 -10 52 -4 0 -5 6 0 13 11 16 11 58 0 81 -6 11
-5 16 0 13 5 -4 10 15 10 41 1 26 4 67 8 92 3 25 6 51 7 58 1 6 4 12 8 12 4 0
5 11 2 25 -3 16 0 25 9 25 7 0 10 2 7 5 -7 7 7 71 23 111 7 16 13 36 15 44 2
8 7 23 12 35 28 59 45 100 43 104 -2 2 2 7 7 10 5 3 19 26 32 50 12 25 29 51
36 59 8 7 14 20 14 27 0 8 6 18 13 22 6 4 23 24 37 43 38 55 41 58 116 134 75
76 154 148 154 140 0 -3 25 14 55 36 30 22 57 40 61 40 4 0 15 6 23 14 9 8 23
16 31 18 8 2 17 5 20 8 14 14 191 88 226 95 11 2 19 4 19 5 0 2 19 7 70 19 22
5 49 11 60 14 98 23 312 29 428 12 45 -7 85 -11 89 -8 4 2 9 -1 13 -7 3 -5 21
-10 39 -10 18 0 36 -3 40 -7 3 -4 14 -8 24 -10 9 -1 44 -12 77 -23 33 -12 75
-26 93 -32 17 -6 32 -15 32 -20 0 -4 6 -8 14 -8 8 0 45 -18 84 -40 38 -22 74
-40 81 -40 6 0 11 -4 11 -10 0 -5 12 -16 28 -24 15 -8 39 -26 54 -40 15 -14
30 -26 34 -26 23 0 254 -263 272 -310 3 -8 12 -21 19 -30 7 -8 13 -19 12 -24
0 -5 3 -12 8 -15 14 -10 63 -107 63 -125 0 -9 3 -16 8 -16 8 0 33 -65 35 -92
1 -10 5 -18 9 -18 4 0 8 -11 8 -23 0 -13 3 -27 7 -31 4 -3 8 -14 9 -24 1 -9 5
-28 9 -42 8 -33 16 -77 20 -115 2 -16 4 -30 5 -30 1 0 3 -27 5 -61 1 -34 5
-66 9 -73 4 -6 4 -11 -1 -11 -4 0 -8 -37 -7 -82 1 -46 -1 -87 -5 -93 -3 -5 -6
-19 -7 -30 -6 -84 -32 -188 -78 -309 -14 -37 -26 -72 -26 -76 0 -10 1342 -7
1359 4 10 7 12 6 6 -4 -5 -8 -4 -11 2 -7 5 3 25 9 44 12 30 5 136 26 149 30
17 5 51 19 88 36 23 10 49 19 58 19 8 0 17 7 20 15 4 8 10 13 14 10 5 -3 15 2
23 10 9 8 19 15 24 15 20 1 152 115 200 173 38 45 88 120 105 157 31 65 60
135 63 150 2 8 10 41 18 72 15 58 18 327 4 376 -4 12 -9 32 -12 43 -12 57 -60
177 -75 189 -4 3 -15 24 -26 47 -10 23 -24 43 -31 43 -6 0 -14 9 -18 19 -9 30
-144 161 -165 161 -5 0 -10 4 -10 8 0 8 -126 85 -145 88 -5 1 -39 14 -74 29
-35 14 -70 24 -77 21 -8 -3 -14 -1 -14 4 0 6 -9 10 -20 10 -11 0 -20 5 -20 10
0 6 -3 9 -7 9 -20 -3 -34 2 -28 10 6 11 -44 175 -56 179 -4 2 -5 10 -2 18 3 8
1 14 -5 14 -8 0 -20 25 -26 52 0 4 -7 13 -13 19 -7 7 -13 16 -13 21 0 4 -18
33 -40 65 -92 134 -201 240 -340 330 -41 27 -78 50 -83 51 -4 1 -34 15 -67 32
-33 17 -60 27 -60 24 0 -3 -11 1 -25 10 -14 9 -25 14 -25 11 0 -2 -24 5 -52
16 -29 11 -54 20 -56 19 -1 -1 -15 1 -30 4 -50 10 -87 16 -142 23 -88 11 -360
5 -360 -7 0 -3 -8 -6 -17 -7 -30 -3 -84 -15 -143 -32 -48 -15 -48 -15 -56 24
-3 19 -9 35 -13 35 -6 0 -29 50 -30 66 0 2 -7 12 -16 20 -8 9 -15 22 -15 30 0
8 -5 14 -12 14 -6 0 -9 3 -5 6 5 6 0 15 -31 49 -7 8 -10 15 -5 15 4 0 3 4 -2
8 -6 4 -26 27 -45 52 -19 25 -38 47 -42 48 -5 2 -8 10 -8 18 0 9 -4 13 -8 10
-5 -3 -15 6 -22 19 -7 13 -17 22 -22 19 -4 -3 -8 0 -8 6 0 21 -127 128 -230
194 -25 16 -56 37 -70 46 -57 38 -225 111 -234 102 -3 -3 -6 0 -6 6 0 7 -8 12
-18 12 -10 0 -22 3 -26 7 -3 4 -14 8 -24 9 -9 1 -47 11 -83 21 -36 11 -76 19
-88 18 -11 -1 -21 1 -21 5 0 3 -10 7 -22 7 -87 5 -205 14 -215 18 -6 2 -13 2
-15 0z"/>
<path d="M3250 4188 c0 -5 -11 -6 -25 -4 -21 4 -38 0 -105 -22 -8 -3 -21 -4
-27 -3 -7 1 -26 -5 -43 -14 -16 -8 -30 -13 -30 -10 0 3 -13 -1 -29 -9 -16 -9
-31 -12 -35 -9 -3 4 -6 1 -6 -5 0 -6 -13 -13 -30 -17 -16 -4 -30 -10 -30 -15
0 -5 -13 -11 -30 -15 -16 -4 -30 -11 -30 -16 0 -6 -4 -7 -10 -4 -5 3 -10 1
-10 -4 0 -6 -5 -11 -10 -11 -10 0 -21 -8 -54 -37 -8 -7 -16 -9 -20 -6 -3 3 -8
-2 -12 -11 -3 -9 -10 -16 -16 -16 -8 0 -33 -22 -139 -123 -16 -15 -29 -30 -29
-33 0 -4 -10 -16 -22 -28 -13 -12 -36 -41 -53 -66 -16 -25 -34 -48 -40 -52 -7
-5 -7 -8 0 -8 7 0 7 -3 0 -8 -13 -9 -86 -158 -100 -202 -40 -130 -42 -141 -60
-280 -8 -61 -9 -170 -1 -215 2 -17 8 -55 12 -85 4 -30 8 -57 9 -60 1 -3 4 -12
7 -20 2 -8 17 -53 33 -100 29 -90 88 -212 118 -244 9 -11 17 -24 17 -29 0 -4
6 -14 13 -21 6 -7 23 -28 37 -46 14 -19 37 -46 53 -60 15 -15 27 -33 27 -40 0
-7 3 -11 6 -8 3 3 18 -6 33 -20 37 -36 56 -51 116 -92 28 -19 52 -37 55 -40
12 -14 199 -100 228 -106 17 -4 32 -10 32 -15 0 -4 9 -6 20 -4 11 2 20 1 20
-3 0 -7 25 -12 68 -15 6 0 12 -3 12 -7 0 -4 11 -6 25 -5 14 2 27 0 30 -4 2 -4
25 -7 50 -7 25 1 45 -1 45 -4 0 -3 19 -4 42 -3 24 0 72 2 108 4 36 1 71 6 78
12 8 6 12 6 12 -2 0 -8 6 -9 18 -3 9 6 37 13 62 17 25 4 59 13 75 20 35 14 38
12 74 -55 14 -25 27 -47 30 -50 4 -3 18 -26 31 -52 14 -27 29 -48 33 -48 5 0
6 -4 2 -9 -3 -5 2 -16 10 -24 8 -9 15 -18 15 -20 0 -11 114 -202 124 -209 6
-4 8 -8 4 -8 -4 0 26 -56 67 -125 41 -69 71 -125 67 -125 -4 0 1 -5 11 -11 9
-6 15 -14 12 -20 -4 -5 -2 -9 3 -9 4 0 14 -16 22 -35 8 -19 16 -35 19 -35 4 0
22 -30 41 -67 42 -80 102 -146 149 -162 61 -20 201 -7 201 19 0 6 7 10 15 10
8 0 15 5 15 10 0 6 6 10 13 10 14 0 74 88 69 102 -1 4 2 8 6 8 8 0 8 83 0 121
-6 26 -52 113 -64 121 -7 4 -15 19 -18 33 -4 14 -11 25 -17 25 -6 0 -8 4 -5 9
3 5 -1 14 -9 21 -8 7 -15 16 -15 21 0 5 -11 27 -25 49 -14 22 -22 40 -18 40 5
0 0 5 -9 11 -10 5 -18 15 -18 20 0 6 -9 23 -19 38 -11 15 -21 34 -23 41 -2 7
-10 22 -18 32 -8 10 -13 21 -12 25 2 3 0 9 -5 12 -8 6 -100 161 -132 224 -8
15 -18 27 -23 27 -4 0 -8 7 -8 16 0 9 -9 27 -20 41 -11 14 -20 32 -20 39 0 8
-4 14 -9 14 -5 0 -11 8 -15 18 -7 20 -39 76 -55 95 -6 8 -8 17 -4 20 3 4 1 7
-5 7 -27 0 -9 41 41 93 84 89 97 104 97 116 0 6 3 11 8 11 4 0 18 20 32 45 14
25 29 45 34 45 5 0 7 3 3 6 -3 3 5 23 18 44 13 21 21 41 18 44 -4 3 -1 6 5 6
7 0 11 3 10 8 -3 14 14 62 23 62 5 0 8 3 7 8 -3 14 14 82 21 82 4 0 7 8 8 18
2 21 11 77 13 77 1 0 3 14 5 30 6 55 13 94 20 104 3 6 1 11 -6 11 -8 0 -8 4 1
15 9 11 9 15 1 15 -7 0 -9 5 -6 10 11 18 15 70 5 70 -6 0 -6 10 0 25 6 17 6
25 -1 25 -6 0 -8 3 -6 8 3 4 0 36 -5 72 -6 36 -11 75 -11 88 -1 12 -5 22 -11
22 -5 0 -7 3 -4 6 4 3 -1 22 -9 42 -8 20 -15 37 -14 37 3 0 -6 28 -21 67 -6
15 -9 30 -8 34 1 4 -2 10 -7 13 -4 3 -23 35 -42 71 -18 36 -43 75 -54 88 -11
12 -17 22 -12 22 4 0 -5 12 -21 27 -16 15 -27 27 -24 27 13 2 -126 145 -180
185 -19 14 -37 28 -40 32 -3 3 -34 23 -70 44 -36 21 -68 43 -71 48 -3 5 -9 8
-13 8 -3 -1 -23 6 -44 15 -82 35 -220 78 -292 90 -50 9 -330 11 -330 2z m74
-470 c5 8 161 10 161 2 0 -1 14 -3 30 -5 17 -1 32 -4 35 -5 3 -2 10 -4 15 -5
33 -6 72 -19 83 -28 6 -5 12 -6 12 -1 0 5 4 4 8 -1 6 -9 56 -35 72 -38 3 0 10
-5 16 -11 7 -6 25 -20 40 -31 57 -39 173 -168 174 -192 0 -6 4 -13 8 -15 11
-4 52 -94 52 -112 0 -8 5 -18 10 -21 6 -4 8 -11 5 -16 -4 -5 -3 -9 2 -9 11 0
16 -63 15 -185 0 -92 -2 -112 -16 -170 -12 -54 -71 -178 -92 -196 -8 -6 -14
-17 -14 -23 0 -6 -28 -38 -63 -71 -87 -83 -112 -101 -197 -141 -30 -14 -62
-27 -70 -29 -8 -2 -15 -4 -15 -5 0 -4 -53 -13 -77 -14 -16 -1 -28 -5 -28 -9 0
-13 -194 -5 -202 7 -6 8 -8 8 -8 0 0 -12 -81 12 -165 48 -110 48 -247 168
-292 257 -10 20 -20 38 -24 41 -10 10 -40 81 -42 100 -1 11 -4 20 -8 20 -7 0
-22 84 -24 130 0 8 -4 21 -8 28 -5 7 -4 12 3 12 7 0 8 6 1 18 -5 10 -6 24 -1
32 4 7 7 21 5 30 -3 14 16 117 29 155 9 29 18 52 27 65 5 8 16 32 25 53 9 20
21 37 27 37 6 0 8 3 4 6 -9 10 133 164 152 164 5 0 15 7 22 16 7 9 22 20 34
25 11 5 27 13 35 18 49 28 80 41 97 41 11 0 23 3 27 7 3 4 16 8 27 10 12 2 28
7 37 12 10 6 23 6 34 0 9 -5 19 -5 22 -1z"/>
</g>
</svg>
